<svg viewBox="0 0 650 18.33" xmlns="http://www.w3.org/2000/svg" xmlns:xlink="http://www.w3.org/1999/xlink" id="_Ñëîé_4" overflow="hidden"><defs></defs><path d="M10.26 15.65C12.57 14.13 14.14 12.35 15.17 10.93 15.56 10.38 15.88 9.88 16.12 9.48 15.4 8 13.69 5.02 10.27 2.69 7.73 0.96 5.29 0.29 3.78 0L0 0 0 18.33 3.78 18.33C5.33 18.01 7.74 17.3 10.26 15.65Z" stroke-width="0" fill="#F7E9AA"/><path d="M10.26 15.65C12.57 14.13 14.14 12.35 15.17 10.93 12.54 11.53 9.79 12.06 6.91 12.5 4.56 12.85 2.26 13.11 0 13.31L0 18.34 3.78 18.34C5.33 18.02 7.74 17.31 10.26 15.66Z" stroke-width="0" fill="#FFCF93"/><path d="M23.35 9.16C23.35 12.22 20.87 14.7 17.81 14.7 14.75 14.7 12.27 12.22 12.27 9.16 12.27 6.1 14.75 3.62 17.81 3.62 20.87 3.62 23.35 6.1 23.35 9.16Z" stroke-width="0" fill="#EBF9FF"/><path d="M63.41 9.47C63.17 9.88 62.86 10.38 62.46 10.92 61.44 12.35 59.86 14.12 57.55 15.64 55.03 17.3 52.62 18 51.07 18.32L32.75 18.32C31.13 17.96 28.76 17.22 26.27 15.64 24.91 14.77 23.78 13.82 22.85 12.89 21.47 11.51 20.54 10.18 19.95 9.24 20.89 7.66 22.83 4.89 26.26 2.68 28.76 1.07 31.13 0.35 32.74 4.44089e-16L51.06 4.44089e-16C52.57 0.29 55.02 0.96 57.54 2.68 60.97 5.01 62.67 7.99 63.39 9.47Z" stroke-width="0" fill="#E62C51"/><path d="M62.46 10.93C61.44 12.36 59.86 14.13 57.55 15.65 55.03 17.31 52.62 18.01 51.07 18.33L32.75 18.33C31.13 17.97 28.76 17.23 26.27 15.65 24.91 14.78 23.78 13.83 22.85 12.9 31.93 14 42.56 14.25 54.2 12.5 57.07 12.07 59.83 11.54 62.46 10.93Z" stroke-width="0" fill="#C72646"/><circle cx="64.43" cy="9.16" r="5.54" stroke-width="0" fill="#EBF9FF"/><path d="M111.16 9.47C110.92 9.88 110.61 10.38 110.21 10.92 109.19 12.35 107.61 14.12 105.3 15.64 102.78 17.3 100.37 18 98.82 18.32L80.5 18.32C78.88 17.96 76.51 17.22 74.02 15.64 72.66 14.77 71.53 13.82 70.6 12.89 69.22 11.51 68.29 10.18 67.7 9.24 68.64 7.66 70.58 4.89 74.01 2.68 76.51 1.07 78.88 0.35 80.49 4.44089e-16L98.81 4.44089e-16C100.32 0.29 102.77 0.96 105.29 2.68 108.72 5.01 110.42 7.99 111.14 9.47Z" stroke-width="0" fill="#F7E9AA"/><path d="M110.21 10.93C109.19 12.36 107.61 14.13 105.3 15.65 102.78 17.31 100.37 18.01 98.82 18.33L80.5 18.33C78.88 17.97 76.51 17.23 74.02 15.65 72.66 14.78 71.53 13.83 70.6 12.9 79.68 14 90.31 14.25 101.95 12.5 104.82 12.07 107.58 11.54 110.21 10.93Z" stroke-width="0" fill="#FFCF93"/><circle cx="112.86" cy="9.16" r="5.54" stroke-width="0" fill="#EBF9FF"/><path d="M158.46 9.47C158.22 9.88 157.91 10.38 157.51 10.92 156.49 12.35 154.91 14.12 152.6 15.64 150.08 17.3 147.67 18 146.12 18.32L127.8 18.32C126.18 17.96 123.81 17.22 121.32 15.64 119.96 14.77 118.83 13.82 117.9 12.89 116.52 11.51 115.59 10.18 115 9.24 115.94 7.66 117.88 4.89 121.31 2.68 123.81 1.07 126.18 0.35 127.79 4.44089e-16L146.11 4.44089e-16C147.62 0.29 150.07 0.96 152.59 2.68 156.02 5.01 157.72 7.99 158.44 9.47Z" stroke-width="0" fill="#E62C51"/><path d="M157.51 10.93C156.49 12.36 154.91 14.13 152.6 15.65 150.08 17.31 147.67 18.01 146.12 18.33L127.8 18.33C126.18 17.97 123.81 17.23 121.32 15.65 119.96 14.78 118.83 13.83 117.9 12.9 126.98 14 137.61 14.25 149.25 12.5 152.12 12.07 154.88 11.54 157.51 10.93Z" stroke-width="0" fill="#C72646"/><circle cx="159.48" cy="9.16" r="5.54" stroke-width="0" fill="#EBF9FF"/><path d="M206.21 9.47C205.97 9.88 205.66 10.38 205.26 10.92 204.24 12.35 202.66 14.12 200.35 15.64 197.83 17.3 195.42 18 193.87 18.32L175.55 18.32C173.93 17.96 171.56 17.22 169.07 15.64 167.71 14.77 166.58 13.82 165.65 12.89 164.27 11.51 163.34 10.18 162.75 9.24 163.69 7.66 165.63 4.89 169.06 2.68 171.56 1.07 173.93 0.35 175.54 4.44089e-16L193.86 4.44089e-16C195.37 0.29 197.82 0.96 200.34 2.68 203.77 5.01 205.47 7.99 206.19 9.47Z" stroke-width="0" fill="#F7E9AA"/><path d="M205.26 10.93C204.24 12.36 202.66 14.13 200.35 15.65 197.83 17.31 195.42 18.01 193.87 18.33L175.55 18.33C173.93 17.97 171.56 17.23 169.07 15.65 167.71 14.78 166.58 13.83 165.65 12.9 174.73 14 185.36 14.25 197 12.5 199.87 12.07 202.63 11.54 205.26 10.93Z" stroke-width="0" fill="#FFCF93"/><circle cx="207.91" cy="9.16" r="5.54" stroke-width="0" fill="#EBF9FF"/><path d="M253.51 9.47C253.27 9.88 252.96 10.38 252.56 10.92 251.54 12.35 249.96 14.12 247.65 15.64 245.13 17.3 242.72 18 241.17 18.32L222.85 18.32C221.23 17.96 218.86 17.22 216.37 15.64 215.01 14.77 213.88 13.82 212.95 12.89 211.57 11.51 210.64 10.18 210.05 9.24 210.99 7.66 212.93 4.89 216.36 2.68 218.86 1.07 221.23 0.35 222.84 4.44089e-16L241.16 4.44089e-16C242.67 0.29 245.12 0.96 247.64 2.68 251.07 5.01 252.77 7.99 253.49 9.47Z" stroke-width="0" fill="#E62C51"/><path d="M252.56 10.93C251.54 12.36 249.96 14.13 247.65 15.65 245.13 17.31 242.72 18.01 241.17 18.33L222.85 18.33C221.23 17.97 218.86 17.23 216.37 15.65 215.01 14.78 213.88 13.83 212.95 12.9 222.03 14 232.66 14.25 244.3 12.5 247.17 12.07 249.93 11.54 252.56 10.93Z" stroke-width="0" fill="#C72646"/><circle cx="254.52" cy="9.16" r="5.54" stroke-width="0" fill="#EBF9FF"/><path d="M301.26 9.47C301.02 9.88 300.71 10.38 300.31 10.92 299.29 12.35 297.71 14.12 295.4 15.64 292.88 17.3 290.47 18 288.92 18.32L270.6 18.32C268.98 17.96 266.61 17.22 264.12 15.64 262.76 14.77 261.63 13.82 260.7 12.89 259.32 11.51 258.39 10.18 257.8 9.24 258.74 7.66 260.68 4.89 264.11 2.68 266.61 1.07 268.98 0.35 270.59 4.44089e-16L288.91 4.44089e-16C290.42 0.29 292.87 0.96 295.39 2.68 298.82 5.01 300.52 7.99 301.24 9.47Z" stroke-width="0" fill="#F7E9AA"/><path d="M300.31 10.93C299.29 12.36 297.71 14.13 295.4 15.65 292.88 17.31 290.47 18.01 288.92 18.33L270.6 18.33C268.98 17.97 266.61 17.23 264.12 15.65 262.76 14.78 261.63 13.83 260.7 12.9 269.78 14 280.41 14.25 292.05 12.5 294.92 12.07 297.68 11.54 300.31 10.93Z" stroke-width="0" fill="#FFCF93"/><circle cx="302.95" cy="9.16" r="5.54" stroke-width="0" fill="#EBF9FF"/><path d="M348.55 9.47C348.31 9.88 348 10.38 347.6 10.92 346.58 12.35 345 14.12 342.69 15.64 340.17 17.3 337.76 18 336.21 18.32L317.89 18.32C316.27 17.96 313.9 17.22 311.41 15.64 310.05 14.77 308.92 13.82 307.99 12.89 306.61 11.51 305.68 10.18 305.09 9.24 306.03 7.66 307.97 4.89 311.4 2.68 313.9 1.07 316.27 0.35 317.88 4.44089e-16L336.2 4.44089e-16C337.71 0.29 340.16 0.96 342.68 2.68 346.11 5.01 347.81 7.99 348.53 9.47Z" stroke-width="0" fill="#E62C51"/><path d="M347.61 10.93C346.59 12.36 345.01 14.13 342.7 15.65 340.18 17.31 337.77 18.01 336.22 18.33L317.9 18.33C316.28 17.97 313.91 17.23 311.42 15.65 310.06 14.78 308.93 13.83 308 12.9 317.08 14 327.71 14.25 339.35 12.5 342.22 12.07 344.98 11.54 347.61 10.93Z" stroke-width="0" fill="#C72646"/><path d="M355.12 9.16C355.12 12.22 352.64 14.7 349.58 14.7 346.52 14.7 344.04 12.22 344.04 9.16 344.04 6.1 346.52 3.62 349.58 3.62 352.64 3.62 355.12 6.1 355.12 9.16Z" stroke-width="0" fill="#EBF9FF"/><path d="M396.31 9.47C396.07 9.88 395.76 10.38 395.36 10.92 394.34 12.35 392.76 14.12 390.45 15.64 387.93 17.3 385.52 18 383.97 18.32L365.65 18.32C364.03 17.96 361.66 17.22 359.17 15.64 357.81 14.77 356.68 13.82 355.75 12.89 354.37 11.51 353.44 10.18 352.85 9.24 353.79 7.66 355.73 4.89 359.16 2.68 361.66 1.07 364.03 0.35 365.64 4.44089e-16L383.96 4.44089e-16C385.47 0.29 387.92 0.96 390.44 2.68 393.87 5.01 395.57 7.99 396.29 9.47Z" stroke-width="0" fill="#F7E9AA"/><path d="M395.36 10.93C394.34 12.36 392.76 14.13 390.45 15.65 387.93 17.31 385.52 18.01 383.97 18.33L365.65 18.33C364.03 17.97 361.66 17.23 359.17 15.65 357.81 14.78 356.68 13.83 355.75 12.9 364.83 14 375.46 14.25 387.1 12.5 389.97 12.07 392.73 11.54 395.36 10.93Z" stroke-width="0" fill="#FFCF93"/><circle cx="398" cy="9.16" r="5.54" stroke-width="0" fill="#EBF9FF"/><path d="M443.6 9.47C443.36 9.88 443.05 10.38 442.65 10.92 441.63 12.35 440.05 14.12 437.74 15.64 435.22 17.3 432.81 18 431.26 18.32L412.94 18.32C411.32 17.96 408.95 17.22 406.46 15.64 405.1 14.77 403.97 13.82 403.04 12.89 401.66 11.51 400.73 10.18 400.14 9.24 401.08 7.66 403.02 4.89 406.45 2.68 408.95 1.07 411.32 0.35 412.93 4.44089e-16L431.25 4.44089e-16C432.76 0.29 435.21 0.96 437.73 2.68 441.16 5.01 442.86 7.99 443.58 9.47Z" stroke-width="0" fill="#E62C51"/><path d="M442.66 10.93C441.64 12.36 440.06 14.13 437.75 15.65 435.23 17.31 432.82 18.01 431.27 18.33L412.95 18.33C411.33 17.97 408.96 17.23 406.47 15.65 405.11 14.78 403.98 13.83 403.05 12.9 412.13 14 422.76 14.25 434.4 12.5 437.27 12.07 440.03 11.54 442.66 10.93Z" stroke-width="0" fill="#C72646"/><path d="M450.17 9.16C450.17 12.22 447.69 14.7 444.63 14.7 441.57 14.7 439.09 12.22 439.09 9.16 439.09 6.1 441.57 3.62 444.63 3.62 447.69 3.62 450.17 6.1 450.17 9.16Z" stroke-width="0" fill="#EBF9FF"/><path d="M491.35 9.47C491.11 9.88 490.8 10.38 490.4 10.92 489.38 12.35 487.8 14.12 485.49 15.64 482.97 17.3 480.56 18 479.01 18.32L460.69 18.32C459.07 17.96 456.7 17.22 454.21 15.64 452.85 14.77 451.72 13.82 450.79 12.89 449.41 11.51 448.48 10.18 447.89 9.24 448.83 7.66 450.77 4.89 454.2 2.68 456.7 1.07 459.07 0.35 460.68 4.44089e-16L479 4.44089e-16C480.51 0.29 482.96 0.96 485.48 2.68 488.91 5.01 490.61 7.99 491.33 9.47Z" stroke-width="0" fill="#F7E9AA"/><path d="M490.41 10.93C489.39 12.36 487.81 14.13 485.5 15.65 482.98 17.31 480.57 18.01 479.02 18.33L460.7 18.33C459.08 17.97 456.71 17.23 454.22 15.65 452.86 14.78 451.73 13.83 450.8 12.9 459.88 14 470.51 14.25 482.15 12.5 485.02 12.07 487.78 11.54 490.41 10.93Z" stroke-width="0" fill="#FFCF93"/><circle cx="493.05" cy="9.16" r="5.54" stroke-width="0" fill="#EBF9FF"/><path d="M538.65 9.47C538.41 9.88 538.1 10.38 537.7 10.92 536.68 12.35 535.1 14.12 532.79 15.64 530.27 17.3 527.86 18 526.31 18.32L507.99 18.32C506.37 17.96 504 17.22 501.51 15.64 500.15 14.77 499.02 13.82 498.09 12.89 496.71 11.51 495.78 10.18 495.19 9.24 496.13 7.66 498.07 4.89 501.5 2.68 504 1.07 506.37 0.35 507.98 4.44089e-16L526.3 4.44089e-16C527.81 0.29 530.26 0.96 532.78 2.68 536.21 5.01 537.91 7.99 538.63 9.47Z" stroke-width="0" fill="#E62C51"/><path d="M537.71 10.93C536.69 12.36 535.11 14.13 532.8 15.65 530.28 17.31 527.87 18.01 526.32 18.33L508 18.33C506.38 17.97 504.01 17.23 501.52 15.65 500.16 14.78 499.03 13.83 498.1 12.9 507.18 14 517.81 14.25 529.45 12.5 532.32 12.07 535.08 11.54 537.71 10.93Z" stroke-width="0" fill="#C72646"/><circle cx="539.67" cy="9.16" r="5.54" stroke-width="0" fill="#EBF9FF"/><path d="M586.4 9.47C586.16 9.88 585.85 10.38 585.45 10.92 584.43 12.35 582.85 14.12 580.54 15.64 578.02 17.3 575.61 18 574.06 18.32L555.74 18.32C554.12 17.96 551.75 17.22 549.26 15.64 547.9 14.77 546.77 13.82 545.84 12.89 544.46 11.51 543.53 10.18 542.94 9.24 543.88 7.66 545.82 4.89 549.25 2.68 551.75 1.07 554.12 0.35 555.73 4.44089e-16L574.05 4.44089e-16C575.56 0.29 578.01 0.96 580.53 2.68 583.96 5.01 585.66 7.99 586.38 9.47Z" stroke-width="0" fill="#F7E9AA"/><path d="M585.46 10.93C584.44 12.36 582.86 14.13 580.55 15.65 578.03 17.31 575.62 18.01 574.07 18.33L555.75 18.33C554.13 17.97 551.76 17.23 549.27 15.65 547.91 14.78 546.78 13.83 545.85 12.9 554.93 14 565.56 14.25 577.2 12.5 580.07 12.07 582.83 11.54 585.46 10.93Z" stroke-width="0" fill="#FFCF93"/><circle cx="588.1" cy="9.16" r="5.54" stroke-width="0" fill="#EBF9FF"/><path d="M633.7 9.47C633.46 9.88 633.15 10.38 632.75 10.92 631.73 12.35 630.15 14.12 627.84 15.64 625.32 17.3 622.91 18 621.36 18.32L603.04 18.32C601.42 17.96 599.05 17.22 596.56 15.64 595.2 14.77 594.07 13.82 593.14 12.89 591.76 11.51 590.83 10.18 590.24 9.24 591.18 7.66 593.12 4.89 596.55 2.68 599.05 1.07 601.42 0.35 603.03 4.44089e-16L621.35 4.44089e-16C622.86 0.29 625.31 0.96 627.83 2.68 631.26 5.01 632.96 7.99 633.68 9.47Z" stroke-width="0" fill="#E62C51"/><path d="M632.75 10.93C631.73 12.36 630.15 14.13 627.84 15.65 625.32 17.31 622.91 18.01 621.36 18.33L603.04 18.33C601.42 17.97 599.05 17.23 596.56 15.65 595.2 14.78 594.07 13.83 593.14 12.9 602.22 14 612.85 14.25 624.49 12.5 627.36 12.07 630.12 11.54 632.75 10.93Z" stroke-width="0" fill="#C72646"/><circle cx="634.72" cy="9.16" r="5.54" stroke-width="0" fill="#EBF9FF"/><path d="M644.31 2.68C640.87 4.89 638.94 7.66 638 9.24 638.59 10.18 639.52 11.51 640.9 12.89 641.83 13.82 642.95 14.77 644.32 15.64 646.43 16.99 648.45 17.71 650.01 18.13L650.01 0.19C648.46 0.6 646.44 1.32 644.32 2.68Z" stroke-width="0" fill="#F7E9AA"/><path d="M640.9 12.89C641.83 13.82 642.95 14.77 644.32 15.64 646.43 16.99 648.45 17.71 650.01 18.13L650.01 13.63C646.84 13.49 643.79 13.24 640.91 12.89Z" stroke-width="0" fill="#FFCF93"/></svg>