<svg viewBox="0 0 283.77 327.09" xmlns="http://www.w3.org/2000/svg" xmlns:xlink="http://www.w3.org/1999/xlink" overflow="hidden"><defs></defs><g><g id="Isolation_Mode"><g><g><path d="M3.05 87.14 140.97 6.99 279.79 87.14 141.87 167.29 3.05 87.14Z" stroke-width="0" fill="#F0452E"/><g><path d="M98.3 107.22 111.64 114.92 124.89 107.22 111.55 99.51 98.3 107.22Z" stroke-width="0" fill="#FFFFFF"/><path d="M177.87 87.85 184.5 83.99 151.44 64.91 144.81 68.76 138.14 64.91 124.89 72.61 138.24 80.31 144.86 76.46 164.57 87.85 151.32 95.55 144.8 91.78 138.17 95.63 128.17 89.86 114.91 97.56 128.26 105.26 134.88 101.41 144.89 107.19 151.51 103.33 158.04 107.1 184.54 91.7 177.87 87.85Z" stroke-width="0" fill="#FFFFFF"/></g><path d="M276.62 85.32 140.97 6.99 6.21 85.31 33.36 100.98 141.58 38.08 250.09 100.73 276.62 85.32Z" stroke-width="0" fill="#D42F19"/><path d="M141.87 167.29 279.79 87.14 279.79 246.42 141.87 326.57 141.87 167.29Z" stroke-width="0" fill="#D42F19"/><path d="M141.87 167.29 141.87 326.57 3.05 246.42 3.05 87.14 141.87 167.29Z" stroke-width="0" fill="#BA1A1A"/><path d="M141.87 167.29 141.87 195.96 279.79 115.81 279.79 87.14 141.87 167.29Z" stroke-width="0" fill="#BA1A1A"/><path d="M3.05 87.14 3.05 115.81 141.87 195.96 141.87 167.29 3.05 87.14Z" stroke-width="0" fill="#911414"/><g><path d="M204.04 244.96 217.3 237.25 217.34 221.92 204.09 229.63 204.04 244.96Z" stroke-width="0" fill="#FFF0F0"/><path d="M227.27 166.36 227.29 158.69 194.45 177.78 194.43 185.44 187.8 189.29 187.76 204.62 201.01 196.92 201.04 189.26 220.62 177.87 220.58 193.2 214.1 196.97 214.08 204.63 204.14 210.41 204.1 225.74 217.35 218.03 217.37 210.37 227.31 204.59 227.33 196.93 233.81 193.16 233.9 162.51 227.27 166.36Z" stroke-width="0" fill="#FFF0F0"/></g><g><path d="M65.61 237.26 78.95 244.96 78.99 229.63 65.65 221.93 65.61 237.26Z" stroke-width="0" fill="#FFD9D9"/><path d="M89.07 185.44 89.01 177.78 55.95 158.69 56.01 166.36 49.26 162.51 49.3 177.83 62.64 185.53 62.58 177.87 82.29 189.26 82.33 204.58 75.73 200.82 75.79 208.48 65.7 202.7 65.74 218.03 79.08 225.74 79.02 218.07 89.03 223.85 89.05 216.18 95.66 219.94 95.66 189.29 89.07 185.44Z" stroke-width="0" fill="#FFD9D9"/></g></g><g><path d="M23.5 231.78 30.55 227.69 31.5 228.24 24.45 232.33 23.5 231.78Z" stroke-width="0" fill="#693C2A"/><path d="M24.45 232.33 24.38 259.25 23.42 258.7 23.5 231.78 24.45 232.33Z" stroke-width="0" fill="#7B4D3A"/><path d="M24.45 232.33 31.5 228.24 124.63 282.01 117.58 286.1 24.45 232.33Z" stroke-width="0" fill="#B86240"/><path d="M117.58 286.1 124.63 282.01 125.58 282.55 118.54 286.65 117.58 286.1Z" stroke-width="0" fill="#C67B5E"/><path d="M118.54 286.65 118.46 313.57 117.51 313.02 117.58 286.1 118.54 286.65Z" stroke-width="0" fill="#7B4D3A"/><path d="M23.35 122.35 30.4 118.26 30.55 227.69 23.5 231.78 23.35 122.35Z" stroke-width="0" fill="#B3553B"/><g><path d="M30.4 119.37 30.4 118.26 23.35 122.35 23.35 123.47 30.4 119.37Z" stroke-width="0" fill="#693C2A"/><path d="M23.5 230.68 23.5 231.78 30.55 227.69 30.55 226.58 23.5 230.68Z" stroke-width="0" fill="#693C2A"/></g><path d="M24.45 232.33 117.58 286.1 117.5 313.02 24.37 259.25 24.45 232.33ZM0 245.18 23.42 258.7 23.5 231.78 23.35 122.35 23.43 95.44 24.38 95.99 24.3 122.9 117.43 176.67 117.51 149.76 118.46 150.31 118.38 177.22 118.53 286.65 118.45 313.57 141.88 327.1 141.88 163.83 0 81.92 0 245.18Z" stroke-width="0" fill="#D18454"/><path d="M24.38 95.99 24.3 122.9 23.35 122.35 23.42 95.44 24.38 95.99Z" stroke-width="0" fill="#7B4D3A"/><path d="M118.46 150.31 118.38 177.22 117.43 176.67 117.51 149.76 118.46 150.31Z" stroke-width="0" fill="#7B4D3A"/><g><path d="M130.22 302.22C127.98 300.93 126.17 301.96 126.16 304.53 126.16 307.1 127.96 310.23 130.2 311.52 132.43 312.81 134.25 311.78 134.26 309.21 134.26 306.64 132.46 303.52 130.23 302.23Z" stroke-width="0" fill="#424242"/><path d="M130.12 175.18C132.35 176.47 134.17 175.43 134.18 172.87 134.18 170.3 132.38 167.17 130.14 165.88 127.91 164.59 126.09 165.63 126.08 168.19 126.08 170.76 127.88 173.89 130.11 175.18Z" stroke-width="0" fill="#424242"/><path d="M11.77 233.83C9.53 232.54 7.72 233.57 7.71 236.14 7.71 238.72 9.51 241.84 11.75 243.13 13.98 244.42 15.8 243.39 15.81 240.82 15.81 238.25 14.01 235.13 11.78 233.84Z" stroke-width="0" fill="#424242"/><path d="M11.69 97.48C9.46 96.19 7.64 97.23 7.63 99.79 7.63 102.36 9.43 105.49 11.66 106.78 13.9 108.07 15.71 107.03 15.72 104.47 15.72 101.9 13.92 98.77 11.68 97.48Z" stroke-width="0" fill="#424242"/></g><g><path d="M130.37 168.16C130.76 168.39 131.08 168.94 131.07 169.38L131.07 170.23C131.07 170.23 131.81 170.66 131.81 170.66 132.2 170.88 132.52 171.44 132.52 171.88 132.52 172.34 132.2 172.51 131.81 172.28L131.07 171.85 131.07 172.7C131.07 173.15 130.75 173.33 130.36 173.11 129.97 172.88 129.65 172.34 129.65 171.89L129.65 171.04C129.65 171.04 128.91 170.61 128.91 170.61 128.52 170.38 128.2 169.84 128.2 169.39 128.2 168.94 128.52 168.76 128.91 168.99L129.65 169.42 129.65 168.57C129.65 168.12 129.97 167.94 130.36 168.16Z" stroke-width="0" fill="#666666"/><path d="M11.92 99.77C12.31 99.99 12.63 100.55 12.63 100.99L12.63 101.84C12.63 101.84 13.37 102.27 13.37 102.27 13.76 102.49 14.08 103.05 14.08 103.49 14.08 103.95 13.76 104.12 13.37 103.9L12.63 103.47 12.63 104.32C12.63 104.77 12.31 104.95 11.92 104.72 11.52 104.49 11.21 103.95 11.21 103.5L11.21 102.65C11.21 102.65 10.47 102.22 10.47 102.22 10.07 101.99 9.76 101.45 9.76 101 9.76 100.55 10.08 100.37 10.47 100.59L11.21 101.02 11.21 100.17C11.21 99.72 11.53 99.54 11.92 99.76Z" stroke-width="0" fill="#666666"/><path d="M129.98 304.28C130.37 304.5 130.69 305.06 130.69 305.5L130.69 306.35C130.69 306.35 131.43 306.78 131.43 306.78 131.82 307 132.14 307.56 132.14 308 132.14 308.45 131.82 308.63 131.43 308.4L130.69 307.97 130.69 308.82C130.69 309.27 130.37 309.45 129.98 309.22 129.59 309 129.27 308.44 129.27 308L129.27 307.15C129.27 307.15 128.53 306.72 128.53 306.72 128.14 306.5 127.82 305.94 127.82 305.5 127.82 305.05 128.14 304.87 128.53 305.09L129.27 305.52 129.27 304.67C129.27 304.22 129.59 304.04 129.98 304.27Z" stroke-width="0" fill="#666666"/><path d="M11.53 235.89C11.92 236.11 12.24 236.67 12.24 237.11L12.24 237.96C12.24 237.96 12.98 238.39 12.98 238.39 13.37 238.62 13.69 239.17 13.69 239.61 13.69 240.06 13.37 240.24 12.98 240.01L12.24 239.58 12.24 240.43C12.24 240.88 11.92 241.06 11.53 240.84 11.13 240.61 10.82 240.06 10.82 239.62L10.82 238.77C10.82 238.77 10.08 238.34 10.08 238.34 9.69 238.11 9.37 237.57 9.37 237.12 9.37 236.67 9.68 236.49 10.08 236.72L10.82 237.15 10.82 236.3C10.82 235.85 11.14 235.67 11.53 235.89Z" stroke-width="0" fill="#666666"/></g></g><g><path d="M260.27 231.78 253.22 227.69 252.27 228.24 259.32 232.33 260.27 231.78Z" stroke-width="0" fill="#824C37"/><path d="M259.32 232.33 259.39 259.25 260.35 258.7 260.27 231.78 259.32 232.33Z" stroke-width="0" fill="#A66146"/><path d="M259.32 232.33 252.27 228.24 159.14 282.01 166.19 286.1 259.32 232.33Z" stroke-width="0" fill="#C77E50"/><path d="M166.19 286.1 159.14 282.01 158.19 282.55 165.24 286.65 166.19 286.1Z" stroke-width="0" fill="#824C37"/><path d="M165.24 286.65 165.31 313.57 166.26 313.02 166.19 286.1 165.24 286.65Z" stroke-width="0" fill="#A66146"/><path d="M260.42 122.35 253.37 118.26 253.22 227.69 260.27 231.78 260.42 122.35Z" stroke-width="0" fill="#C26B48"/><path d="M260.42 123.44 260.42 122.35 253.37 118.26 253.37 119.34 260.42 123.44Z" stroke-width="0" fill="#824C37"/><path d="M260.27 230.7 253.22 226.6 253.22 227.69 260.27 231.78 260.27 230.7Z" stroke-width="0" fill="#824C37"/><path d="M259.39 259.25 166.26 313.02 166.18 286.1 259.31 232.33 259.39 259.25ZM283.77 81.92 141.88 163.83 141.88 327.1 165.31 313.57 165.23 286.65 165.38 177.22 165.3 150.31 166.25 149.76 166.33 176.67 259.46 122.9 259.38 95.99 260.33 95.44 260.41 122.35 260.26 231.78 260.34 258.7 283.76 245.18 283.76 81.92Z" stroke-width="0" fill="#DE985F"/><path d="M259.39 95.99 259.47 122.9 260.42 122.35 260.35 95.44 259.39 95.99Z" stroke-width="0" fill="#A66146"/><path d="M165.31 150.31 165.39 177.22 166.34 176.67 166.26 149.76 165.31 150.31Z" stroke-width="0" fill="#A66146"/><g><path d="M153.55 302.22C155.79 300.93 157.6 301.96 157.61 304.53 157.61 307.1 155.81 310.23 153.57 311.52 151.34 312.81 149.52 311.78 149.51 309.21 149.51 306.64 151.31 303.52 153.54 302.23Z" stroke-width="0" fill="#4F4F4F"/><path d="M153.65 175.18C151.42 176.47 149.6 175.43 149.59 172.87 149.59 170.3 151.39 167.17 153.63 165.88 155.86 164.59 157.68 165.63 157.69 168.19 157.69 170.76 155.89 173.89 153.66 175.18Z" stroke-width="0" fill="#4F4F4F"/><path d="M272 233.83C274.24 232.54 276.05 233.57 276.06 236.14 276.06 238.72 274.26 241.84 272.02 243.13 269.79 244.42 267.97 243.39 267.96 240.82 267.96 238.25 269.76 235.13 271.99 233.84Z" stroke-width="0" fill="#4F4F4F"/><path d="M272.08 97.48C274.31 96.19 276.13 97.23 276.14 99.79 276.14 102.36 274.34 105.49 272.11 106.78 269.87 108.07 268.06 107.03 268.05 104.47 268.05 101.9 269.85 98.77 272.09 97.48Z" stroke-width="0" fill="#4F4F4F"/></g><g><path d="M165.39 177.21 141.89 190.79 141.89 191.89 165.39 178.32 165.39 177.22 165.39 177.21Z" stroke-width="0" fill="#A66146"/><path d="M283.77 109.93 283.77 108.82 260.42 122.31 260.42 122.35 260.42 123.42 283.77 109.93Z" stroke-width="0" fill="#A66146"/></g><g><path d="M165.24 285.55 141.89 299.08 141.89 300.18 165.23 286.65 165.24 285.55 165.24 285.55Z" stroke-width="0" fill="#A66146"/><path d="M283.77 218.22 283.77 217.11 260.27 230.68 260.27 230.72 260.27 231.78 283.77 218.22Z" stroke-width="0" fill="#A66146"/></g><g><path d="M271.86 99.77C272.25 99.55 272.57 99.73 272.57 100.18L272.57 101.03C272.57 101.03 273.31 100.6 273.31 100.6 273.7 100.38 274.02 100.56 274.02 101.01 274.02 101.47 273.7 102.01 273.31 102.23L272.57 102.66 272.57 103.51C272.57 103.96 272.26 104.51 271.87 104.73 271.48 104.96 271.16 104.78 271.16 104.33L271.16 103.48C271.16 103.48 270.42 103.91 270.42 103.91 270.03 104.13 269.71 103.96 269.71 103.51 269.71 103.06 270.03 102.51 270.42 102.29L271.16 101.86 271.16 101.01C271.16 100.56 271.47 100.01 271.86 99.79Z" stroke-width="0" fill="#666666"/><path d="M153.4 168.16C153.79 167.94 154.11 168.12 154.11 168.56L154.11 169.41C154.11 169.41 154.85 168.98 154.85 168.98 155.24 168.76 155.56 168.94 155.56 169.39 155.56 169.84 155.24 170.39 154.85 170.61L154.11 171.04 154.11 171.89C154.11 172.34 153.8 172.89 153.41 173.11 153.01 173.34 152.7 173.16 152.7 172.71L152.7 171.86C152.7 171.86 151.96 172.29 151.96 172.29 151.56 172.52 151.25 172.34 151.25 171.88 151.25 171.43 151.56 170.89 151.96 170.66L152.7 170.23 152.7 169.38C152.7 168.93 153.01 168.39 153.4 168.16Z" stroke-width="0" fill="#666666"/><path d="M272.24 235.89C272.63 235.67 272.95 235.85 272.95 236.29L272.95 237.14C272.95 237.14 273.69 236.71 273.69 236.71 274.08 236.49 274.4 236.67 274.4 237.12 274.4 237.57 274.08 238.12 273.69 238.34L272.95 238.77 272.95 239.62C272.95 240.07 272.64 240.62 272.25 240.84 271.86 241.06 271.54 240.88 271.54 240.44L271.54 239.59C271.54 239.59 270.8 240.02 270.8 240.02 270.41 240.24 270.09 240.06 270.09 239.62 270.09 239.17 270.41 238.62 270.8 238.4L271.54 237.97 271.54 237.12C271.54 236.67 271.85 236.12 272.24 235.9Z" stroke-width="0" fill="#666666"/><path d="M153.79 304.27C154.18 304.05 154.5 304.23 154.5 304.68L154.5 305.53C154.5 305.53 155.24 305.1 155.24 305.1 155.63 304.87 155.95 305.06 155.95 305.51 155.95 305.96 155.63 306.51 155.24 306.73L154.5 307.16 154.5 308.01C154.5 308.46 154.19 309.01 153.8 309.23 153.4 309.46 153.09 309.27 153.09 308.83L153.09 307.98C153.09 307.98 152.35 308.41 152.35 308.41 151.95 308.64 151.64 308.45 151.64 308.01 151.64 307.56 151.95 307.01 152.35 306.79L153.09 306.36 153.09 305.51C153.09 305.06 153.4 304.51 153.79 304.29Z" stroke-width="0" fill="#666666"/></g></g><g><path d="M165.88 14.07 142.53 27.59 141.58 27.04 164.92 13.52 165.88 14.07Z" stroke-width="0" fill="#C67B5E"/><path d="M142.53 27.59 142.51 35.75 141.56 35.2 141.58 27.04 142.53 27.59Z" stroke-width="0" fill="#7B4D3A"/><path d="M141.58 27.04 141.56 35.2 46.83 90.07 46.85 81.92 141.58 27.04Z" stroke-width="0" fill="#DE985F"/><path d="M46.85 83.17 141.58 28.3 141.58 27.04 46.85 81.92 46.85 83.17Z" stroke-width="0" fill="#FFFFFF" opacity="0.4"/><g><path d="M140.62 27.6 140.61 35.75 141.56 35.2 141.58 27.04 140.62 27.6Z" stroke-width="0" fill="#7B4D3A"/><path d="M47.8 81.36 46.85 81.92 46.83 90.07 47.78 89.51 47.8 81.36Z" stroke-width="0" fill="#7B4D3A"/></g><path d="M47.81 82.46 24.38 96 23.42 95.44 46.85 81.92 47.81 82.46Z" stroke-width="0" fill="#C67B5E"/><path d="M142.2 136.78 118.46 150.28 117.5 149.76 141.24 136.23 142.2 136.78Z" stroke-width="0" fill="#C67B5E"/><path d="M235.97 81.37 235.95 89.52 142.51 35.75 142.53 27.59 235.97 81.37Z" stroke-width="0" fill="#D18454"/><path d="M142.53 28.84 235.97 82.61 235.97 81.37 142.53 27.59 142.53 28.84Z" stroke-width="0" fill="#FFFFFF" opacity="0.4"/><path d="M260.27 68.39 236.93 81.91 235.97 81.37 259.31 67.84 260.27 68.39Z" stroke-width="0" fill="#C67B5E"/><path d="M236.93 81.91 236.9 90.07 235.95 89.52 235.97 81.37 236.93 81.91Z" stroke-width="0" fill="#7B4D3A"/><path d="M141.58 27.04 46.85 81.91 23.42 95.44 0 81.92 141.42 0 164.92 13.52 141.58 27.04ZM24.38 96 117.5 149.76 141.24 136.23 47.8 82.46 24.37 96ZM165.88 14.07 142.54 27.59 235.98 81.36 259.32 67.84 165.88 14.07ZM260.27 68.39 283.77 81.92 141.88 163.83 118.45 150.28 142.19 136.78 236.92 81.91 260.26 68.39Z" stroke-width="0" fill="#E3AA6B"/><g><path d="M137.47 15.86C139.71 17.15 143.34 17.15 145.57 15.86 147.8 14.57 147.79 12.48 145.54 11.19 143.3 9.9 139.67 9.9 137.44 11.19 135.21 12.48 135.23 14.57 137.47 15.86Z" stroke-width="0" fill="#666666"/><path d="M27.46 79.58C25.22 78.29 21.6 78.29 19.37 79.58 17.14 80.87 17.15 82.96 19.4 84.25 21.64 85.54 25.26 85.54 27.5 84.25 29.73 82.96 29.71 80.87 27.47 79.58Z" stroke-width="0" fill="#666666"/><path d="M264.38 79.58C262.14 78.29 258.51 78.29 256.28 79.58 254.05 80.87 254.06 82.96 256.31 84.25 258.55 85.54 262.18 85.54 264.41 84.25 266.64 82.96 266.63 80.87 264.38 79.58Z" stroke-width="0" fill="#666666"/><path d="M146.3 147.97C144.06 146.68 140.44 146.68 138.21 147.97 135.98 149.26 136 151.35 138.24 152.64 140.48 153.93 144.1 153.93 146.34 152.64 148.57 151.35 148.55 149.26 146.31 147.97Z" stroke-width="0" fill="#666666"/></g><path d="M235.97 82.46 259.39 95.99 260.34 95.44 236.93 81.91 235.97 82.46Z" stroke-width="0" fill="#C67B5E"/><path d="M142.2 136.78 165.3 150.3 166.26 149.75 143.15 136.23 142.2 136.78Z" stroke-width="0" fill="#C67B5E"/><path d="M117.21 14.07 140.63 27.6 141.58 27.05 118.16 13.52 117.21 14.07Z" stroke-width="0" fill="#C67B5E"/><path d="M23.58 68.26 46.88 81.89 47.84 81.34 24.53 67.71 23.58 68.26Z" stroke-width="0" fill="#C67B5E"/><g><path d="M262.11 82.34 261.37 81.91 262.11 81.48C262.5 81.26 262.49 80.89 262.11 80.66 261.72 80.44 261.08 80.44 260.7 80.66L259.96 81.09 259.22 80.66C258.83 80.44 258.19 80.43 257.81 80.66 257.42 80.89 257.43 81.25 257.81 81.48L258.55 81.91 257.81 82.34C257.42 82.57 257.43 82.93 257.81 83.16 258.2 83.39 258.83 83.38 259.22 83.16L259.96 82.73 260.7 83.16C261.09 83.39 261.73 83.39 262.11 83.16 262.5 82.94 262.49 82.57 262.11 82.34Z" stroke-width="0" fill="#666666"/><path d="M140.77 14.77 141.51 14.34 142.25 14.77C142.64 15 143.28 14.99 143.66 14.77 144.05 14.55 144.05 14.18 143.66 13.95L142.92 13.52 143.66 13.09C144.05 12.87 144.04 12.5 143.66 12.27 143.26 12.04 142.63 12.05 142.25 12.27L141.51 12.7 140.77 12.27C140.37 12.04 139.74 12.05 139.36 12.27 138.97 12.5 138.97 12.86 139.36 13.09L140.1 13.52 139.36 13.95C138.97 14.17 138.97 14.54 139.36 14.77 139.75 14.99 140.39 14.99 140.77 14.77Z" stroke-width="0" fill="#666666"/><path d="M144.43 150.73 143.69 150.3 144.42 149.88C144.81 149.65 144.8 149.29 144.42 149.06 144.03 148.84 143.4 148.83 143.01 149.06L142.28 149.48 141.54 149.05C141.15 148.83 140.51 148.83 140.13 149.05 139.74 149.28 139.74 149.65 140.13 149.87L140.87 150.3 140.14 150.72C139.75 150.95 139.75 151.32 140.14 151.54 140.53 151.76 141.17 151.76 141.56 151.54L142.29 151.12 143.03 151.55C143.42 151.77 144.06 151.77 144.45 151.55 144.84 151.33 144.83 150.96 144.45 150.73Z" stroke-width="0" fill="#666666"/><path d="M25.97 82.34 25.23 81.91 25.96 81.49C26.35 81.26 26.34 80.9 25.96 80.67 25.56 80.44 24.94 80.44 24.55 80.67L23.82 81.09 23.08 80.66C22.68 80.43 22.05 80.43 21.67 80.66 21.28 80.89 21.27 81.25 21.67 81.48L22.41 81.91 21.68 82.33C21.29 82.56 21.28 82.92 21.68 83.15 22.07 83.37 22.71 83.37 23.1 83.15L23.83 82.73 24.57 83.16C24.96 83.39 25.6 83.38 25.99 83.16 26.38 82.94 26.37 82.57 25.99 82.34Z" stroke-width="0" fill="#666666"/></g></g><g><path d="M118.54 285.55 141.89 299.08 141.89 300.18 118.54 286.65 118.54 285.55 118.54 285.55Z" stroke-width="0" fill="#7B4D3A"/><path d="M0 218.22 0 217.11 23.5 230.68 23.5 230.72 23.5 231.78 0 218.22Z" stroke-width="0" fill="#7B4D3A"/></g><g><path d="M118.37 177.22 141.89 190.79 141.89 191.89 118.38 178.32 118.37 177.23 118.37 177.22Z" stroke-width="0" fill="#7B4D3A"/><path d="M0 109.93 0 108.82 23.35 122.35 23.35 122.39 23.35 123.45 0 109.93Z" stroke-width="0" fill="#7B4D3A"/></g><path d="M141.89 165 283.77 83.05 283.77 81.94 141.89 163.89 141.89 165Z" stroke-width="0" fill="#FFFFFF" opacity="0.4"/><path d="M141.89 165 0 83.05 0 81.94 141.89 163.89 141.89 165Z" stroke-width="0" fill="#FFFFFF" opacity="0.4"/><path d="M141.89 327.09 283.77 245.14 283.77 244.03 141.89 325.98 141.89 327.09Z" stroke-width="0" fill="#E3CABE" opacity="0.9"/><path d="M141.89 327.09 0 245.14 0 244.03 141.89 325.98 141.89 327.09Z" stroke-width="0" fill="#E3CABE" opacity="0.9"/></g></g></g></svg>