<svg width="564" height="88" xmlns="http://www.w3.org/2000/svg" xmlns:xlink="http://www.w3.org/1999/xlink" xml:space="preserve" overflow="hidden"><g transform="translate(-1457 -494)"><path d="M1484.19 536.333 1496.87 537.135 1495.09 563.045C1494.79 565.387 1494.12 567.497 1493.07 569.376 1490.7 573.641 1487.04 575.861 1482.11 576.037 1476.11 576.162 1471.9 574.022 1469.47 569.617 1468.74 568.275 1468.21 566.693 1467.9 564.87 1467.69 563.3 1467.85 562.515 1468.37 562.515L1478.72 561.007C1478.51 562.094 1478.55 562.826 1478.84 563.205 1479.38 564.042 1479.87 564.545 1480.31 564.712 1481.87 565.423 1482.73 564.481 1482.91 561.884ZM1518.42 536.208 1531.63 536.875 1530.82 562.808C1530.82 566.033 1529.79 568.93 1527.72 571.499 1524.82 575.152 1520.84 576.749 1515.79 576.288 1509.47 575.682 1505.04 573.301 1502.5 569.145 1501.32 567.219 1500.65 565.187 1500.47 563.05L1498.71 537.131 1512.94 536.333 1514.23 560.277C1514.58 562.187 1515.35 563.083 1516.55 562.964 1517.8 562.835 1518.42 561.852 1518.42 560.015ZM1535.53 535.58 1549.08 536.442 1550.34 563.294 1559.9 563.543 1561.67 576.098 1536.36 576.163ZM1584.47 535.266 1597.57 537.597 1588.9 565.089 1588.63 576.351 1572.14 575.83 1571.75 565.109 1562.39 536.893 1576.64 536.019 1580.31 551.778Z" stroke="#FFFFFF" stroke-width="4" stroke-linejoin="round" stroke-miterlimit="10" fill="#B45057" fill-rule="evenodd"/><text fill-opacity="0" font-family="Arial,Arial_MSFontService,Arial" font-size="41.0994" x="1467.81" y="571.228">jULY</text><path d="M1996.3 562.955C1998.32 562.955 1999.96 563.372 2001.23 564.206 2002.81 565.288 2003.6 566.758 2003.6 568.616 2003.6 570.569 2002.79 572.478 2001.17 574.342 1999.8 575.974 1998.17 576.79 1996.3 576.79 1992.02 576.79 1989.89 574.819 1989.89 570.876 1989.89 568.873 1990.41 567.31 1991.46 566.187 1992.78 564.032 1994.4 562.955 1996.3 562.955ZM1971.72 547.219 1971.77 555.404 1972.23 555.295C1974.34 554.588 1975.25 552.706 1974.97 549.65 1974.27 548.103 1973.18 547.293 1971.72 547.219ZM1816.8 537.024 1830.34 538.417 1825.8 576.853 1811.04 575.814 1808.18 562.664 1804.57 576.831 1792.08 577.418 1787.88 537.088 1800.83 537.088 1801.91 552.029 1802.51 543.114 1813.63 543.386 1814.52 552.908ZM1652.86 536.841C1654.02 536.86 1655.2 536.92 1656.39 537.022L1655.7 550.208C1655.22 550.475 1654.55 550.532 1653.68 550.379 1652.77 549.884 1651.7 549.518 1650.47 549.281 1647.3 548.576 1645.78 549.296 1645.9 551.44 1645.78 551.908 1646.26 552.437 1647.35 553.027L1651.68 555.168C1656.57 557.717 1659.06 560.797 1659.15 564.407 1659.15 565.389 1658.94 566.603 1658.51 568.049 1657.83 570.411 1656.46 572.3 1654.41 573.717 1650.52 576.519 1645.54 577.581 1639.49 576.903 1637.55 576.697 1635.67 576.283 1633.85 575.662 1632.33 574.949 1631.7 574.341 1631.96 573.836L1632.69 565.025C1634.21 565.371 1635.52 565.585 1636.63 565.667 1638.93 565.867 1640.78 565.576 1642.17 564.793 1642.89 564.438 1643.02 564.117 1642.58 563.83 1642.32 563.539 1641.31 562.818 1639.54 561.668 1635.85 559.409 1634.18 557.02 1634.54 554.502 1634.54 554.586 1634.08 554.361 1633.17 553.827L1632.89 552.736C1632.68 551.523 1632.61 550.275 1632.7 548.992 1633 544.911 1634.88 541.831 1638.33 539.752 1641.01 538.114 1644.71 537.166 1649.43 536.908 1650.56 536.844 1651.7 536.822 1652.86 536.841ZM1953.66 536.647 1953.33 542.926C1953.21 545.52 1953.15 547.515 1953.15 548.911L1940.09 548.974 1940.09 551.215 1949.83 551.089 1948.89 561.703 1939.61 562.016 1939.47 563.77 1943.21 563.771C1944.43 563.771 1945.42 563.75 1946.17 563.708 1950.64 563.708 1953.26 564.072 1954.03 564.799L1954.22 576.094 1924.56 576.351 1926.03 536.903ZM1771.66 536.647 1771.33 542.926C1771.21 545.52 1771.15 547.515 1771.15 548.911L1758.09 548.974 1758.09 551.215 1767.83 551.089 1766.89 561.703 1757.61 562.016 1757.47 563.77 1761.21 563.771C1762.43 563.771 1763.42 563.75 1764.17 563.708 1768.64 563.708 1771.26 564.072 1772.03 564.799L1772.22 576.094 1742.56 576.351 1744.03 536.903ZM1848.28 536.333 1848.47 576.414 1833.32 576.414 1835.61 537.131ZM1627.28 536.333 1627.47 576.414 1612.32 576.414 1614.61 537.131ZM1890.48 536.208 1902.85 537.322 1908.16 553.348 1907.65 536.584 1920.83 537.775 1922.43 576.461 1907.79 576.79 1901.71 558.583 1902.22 576.602 1888.32 576.404ZM1853.48 536.208 1865.85 537.322 1871.16 553.348 1870.65 536.584 1883.83 537.775 1885.43 576.461 1870.79 576.79 1864.71 558.583 1865.22 576.602 1851.32 576.404ZM1708.36 536.208 1720.91 537.337 1720.78 551.293 1725.47 551.342 1725.53 536.584 1738.71 537.775 1740.31 576.461 1725.47 576.79 1725.72 561.534 1720.75 561.534 1720.06 576.602 1706.2 576.404ZM1971.72 535.979C1978.03 536.153 1982.55 538.366 1985.3 542.617 1986.58 544.708 1987.12 547.925 1986.9 552.27 1986.64 557.615 1985.03 561.345 1982.08 563.462L1987.67 568.198 1980.01 577.544 1971.82 570.261 1971.76 576.351 1958.07 575.823 1959.02 536.497 1968.9 536.029C1969.88 535.971 1970.81 535.954 1971.72 535.979ZM1701.81 534.889 1702.09 545.11 1696.88 545.424 1697.06 576.414 1681.91 576.414 1683.79 546.152 1675.5 546.591 1675.84 536.248ZM2003.97 533.759 2003.19 560.017 1990.33 560.215 1990.26 535.275Z" stroke="#FFFFFF" stroke-width="4" stroke-linejoin="round" stroke-miterlimit="10" fill="#B45057" fill-rule="evenodd"/><text fill-opacity="0" font-family="Arial,Arial_MSFontService,Arial" font-size="43.785" x="1612.32" y="572.071">IS THE WINNER!</text></g></svg>