<svg viewBox="0 0 94.74 95.09" xmlns="http://www.w3.org/2000/svg" xmlns:xlink="http://www.w3.org/1999/xlink" id="Isolation_Mode" overflow="hidden"><defs></defs><path d="M72.11 93.37C72.11 93.85 71.89 94.27 71.54 94.58 71.19 94.89 70.69 95.08 70.15 95.08L24.77 95.08C23.69 95.08 22.81 94.31 22.81 93.36 22.81 92.08 23.34 90.9 24.21 90 24.21 90 42.89 96.79 70.7 90 71.58 90.9 72.1 92.08 72.1 93.36Z" stroke-width="0" fill="#A57200"/><path d="M66.15 88.15C67.98 88.15 69.61 88.87 70.7 90.01 42.89 96.8 24.21 90.01 24.21 90.01 24.32 89.89 24.43 89.79 24.55 89.68 25.63 88.73 27.12 88.15 28.76 88.15L66.15 88.15Z" stroke-width="0" fill="#C18A00"/><path d="M67.7 86.48 67.7 88.15 27.22 88.15 27.22 86.48C27.22 85.86 27.34 85.27 27.57 84.72L67.35 84.72C67.58 85.27 67.7 85.86 67.7 86.48Z" stroke-width="0" fill="#A57200"/><path d="M67.35 84.72 27.56 84.72C28.39 82.68 30.62 81.22 33.22 81.22L61.69 81.22C64.3 81.22 66.52 82.68 67.35 84.72Z" stroke-width="0" fill="#C18A00"/><path d="M37.29 76.21 40.1 76.21C39.08 76.26 36.37 76.81 36.37 81.23L31.28 81.23C31.28 75.79 37.3 76.21 37.3 76.21Z" stroke-width="0" fill="#F9B200"/><path d="M63.63 81.22 58.54 81.22C58.54 76.81 55.83 76.25 54.81 76.2L57.62 76.2C57.62 76.2 63.63 75.77 63.63 81.22Z" stroke-width="0" fill="#F9B200"/><path d="M58.55 81.22 51.62 81.22C51.62 76.81 50.61 76.25 50.22 76.2L54.82 76.2C55.84 76.25 58.55 76.8 58.55 81.22Z" stroke-width="0" fill="#FFCF48"/><path d="M40.5 76.21 44.71 76.21C44.32 76.26 43.31 76.81 43.31 81.23L36.38 81.23C36.38 76.82 39.09 76.26 40.11 76.21L40.5 76.21Z" stroke-width="0" fill="#FFCF48"/><path d="M51.61 81.22 43.3 81.22C43.3 76.81 44.32 76.25 44.7 76.2L50.21 76.2C50.6 76.25 51.61 76.8 51.61 81.22Z" stroke-width="0" fill="#F9B200"/><path d="M51.33 57.12C51.33 57.12 55.39 59.8 50.22 62.68L49.35 62.68C52.89 59.8 50.11 57.12 50.11 57.12L51.32 57.12Z" stroke-width="0" fill="#E2A700"/><path d="M45.56 62.68 44.69 62.68C39.53 59.8 43.58 57.12 43.58 57.12L44.8 57.12C44.8 57.12 42.02 59.8 45.56 62.68Z" stroke-width="0" fill="#E2A700"/><path d="M50.11 57.12C50.11 57.12 52.89 59.8 49.35 62.68L48.17 62.68C49.49 59.8 48.45 57.12 48.45 57.12L50.11 57.12Z" stroke-width="0" fill="#FFCF48"/><path d="M46.75 62.68 45.57 62.68C42.03 59.8 44.81 57.12 44.81 57.12L46.47 57.12C46.47 57.12 45.43 59.8 46.75 62.68Z" stroke-width="0" fill="#FFCF48"/><path d="M48.46 57.12C48.46 57.12 49.5 59.8 48.18 62.68L46.76 62.68C45.43 59.8 46.48 57.12 46.48 57.12L48.47 57.12Z" stroke-width="0" fill="#F9B200"/><path d="M50.07 76.21 44.85 76.21C46.64 72.64 46.75 62.69 46.75 62.69L48.17 62.69C48.17 62.69 48.27 72.64 50.07 76.21Z" stroke-width="0" fill="#E2A700"/><path d="M54.42 76.21 50.21 76.21C50.12 76.19 50.06 76.21 50.06 76.21 48.26 72.64 48.16 62.69 48.16 62.69L49.34 62.69C49.34 62.69 49.62 72.64 54.41 76.21Z" stroke-width="0" fill="#F9B200"/><path d="M45.56 62.68 46.74 62.68C46.74 62.68 46.63 72.63 44.84 76.2 44.84 76.2 44.78 76.18 44.69 76.2L40.48 76.2C45.26 72.63 45.55 62.68 45.55 62.68Z" stroke-width="0" fill="#F9B200"/><path d="M57.62 76.21 54.81 76.21C54.56 76.19 54.42 76.21 54.42 76.21 49.63 72.64 49.35 62.69 49.35 62.69L50.22 62.69C50.22 62.69 50.63 72.64 57.62 76.21Z" stroke-width="0" fill="#C18A00"/><path d="M44.69 62.68 45.56 62.68C45.56 62.68 45.28 72.63 40.49 76.2 40.49 76.2 40.34 76.18 40.1 76.2L37.29 76.2C44.27 72.63 44.69 62.68 44.69 62.68Z" stroke-width="0" fill="#C18A00"/><path d="M44.8 57.12 43.58 57.12C43.58 54.56 38.9 53.41 38.9 53.41L41.6 53.41C41.6 53.41 44.8 54.56 44.8 57.12Z" stroke-width="0" fill="#C18A00"/><path d="M53.31 53.41 56 53.41C56 53.41 51.32 54.56 51.32 57.12L50.11 57.12C50.11 54.56 53.31 53.41 53.31 53.41Z" stroke-width="0" fill="#C18A00"/><path d="M49.65 53.41 53.31 53.41C53.31 53.41 50.11 54.56 50.11 57.12L48.45 57.12C48.45 54.56 49.65 53.41 49.65 53.41Z" stroke-width="0" fill="#E2A700"/><path d="M46.46 57.12 44.8 57.12C44.8 54.56 41.6 53.41 41.6 53.41L45.26 53.41C45.26 53.41 46.46 54.56 46.46 57.12Z" stroke-width="0" fill="#E2A700"/><path d="M45.26 53.41 49.65 53.41C49.65 53.41 48.45 54.56 48.45 57.12L46.46 57.12C46.46 54.56 45.26 53.41 45.26 53.41Z" stroke-width="0" fill="#C18A00"/><path d="M53.96 51.36 56 53.41 53.31 53.41 51.91 51.36 53.96 51.36Z" stroke-width="0" fill="#E2A700"/><path d="M43 51.36 41.6 53.41 38.91 53.41 40.96 51.36 43 51.36Z" stroke-width="0" fill="#E2A700"/><path d="M49.13 51.36 49.65 53.41 45.26 53.41 45.79 51.36 49.13 51.36Z" stroke-width="0" fill="#F9B200"/><path d="M51.91 51.36 53.31 53.41 49.65 53.41 49.13 51.36 51.91 51.36Z" stroke-width="0" fill="#FFCF48"/><path d="M45.79 51.36 45.26 53.41 41.6 53.41 43 51.36 45.79 51.36Z" stroke-width="0" fill="#FFCF48"/><path d="M90.45 1.41C94.44 3.59 95.88 9.61 93.76 15.98 85.32 30.88 69.13 32.56 69.13 32.56 75.6 31.05 80.48 27.96 83.87 24.36 83.87 24.36 83.87 24.36 83.89 24.34 85.52 22.6 86.81 20.75 87.75 18.9 87.75 18.89 87.76 18.88 87.77 18.87 90.25 14.67 92.51 8.94 89.71 4.89 84.77-2.23 74.11 8.43 74.11 8.43L74.11 8.43C74.11 8.03 74.1 7.65 74.08 7.29 74.08 7.29 81.62-3.42 90.46 1.41Z" stroke-width="0" fill="#E2A700"/><path d="M20.84 7.24C20.83 7.61 20.81 8 20.81 8.42L20.63 8.42C20.63 8.42 9.98-2.24 5.04 4.88 2.24 8.93 4.5 14.66 6.98 18.86L7 18.89C7.94 20.74 9.23 22.59 10.86 24.33 10.86 24.34 10.87 24.35 10.88 24.35 14.26 27.95 19.15 31.04 25.62 32.55 25.62 32.55 9.42 30.87 0.99 15.97-1.15 9.62 0.3 3.59 4.29 1.41 13.13-3.43 20.67 7.29 20.67 7.29 20.67 7.29 20.73 7.27 20.84 7.25Z" stroke-width="0" fill="#E2A700"/><path d="M26.68 34.38 26.53 34.44C11.45 31.99 3.57 23.73 0.98 15.98 9.41 30.88 25.61 32.56 25.61 32.56L25.76 32.51C26.05 33.13 26.35 33.76 26.68 34.38Z" stroke-width="0" fill="#B27B00"/><path d="M20.84 11.69 20.67 11.69C20.67 11.69 13.13 1.54 7.27 6.04 4.43 8.22 4.26 13.51 6.97 18.87 4.49 14.67 2.23 8.94 5.03 4.89 9.97-2.23 20.63 8.43 20.63 8.43L20.81 8.43C20.79 9.41 20.8 10.51 20.84 11.69Z" stroke-width="0" fill="#B27B00"/><path d="M69.13 32.56C69.13 32.56 85.32 30.88 93.76 15.98 91.17 23.73 83.28 31.99 68.21 34.44 68.53 33.81 68.84 33.18 69.13 32.56Z" stroke-width="0" fill="#B27B00"/><path d="M89.7 4.88C92.5 8.93 90.24 14.66 87.76 18.86 90.47 13.5 90.3 8.22 87.46 6.03 81.61 1.53 74.06 11.69 74.06 11.69 74.1 10.5 74.11 9.41 74.09 8.42L74.09 8.42C74.09 8.42 84.74-2.24 89.69 4.88Z" stroke-width="0" fill="#B27B00"/><path d="M73.67 2.82C73.67 2.82 73.96 4.49 74.07 7.29 71.2 6.69 68.38 6.21 65.64 5.83 65.56 3.92 65.42 2.83 65.42 2.83L73.67 2.83Z" stroke-width="0" fill="#B27B00"/><path d="M21.29 2.82 29.48 2.82C29.48 2.82 29.35 3.88 29.26 5.72 24.55 6.36 21.55 7.06 20.83 7.24 20.94 4.47 21.23 2.82 21.23 2.82L21.29 2.82Z" stroke-width="0" fill="#B27B00"/><path d="M54.19 2.82C54.19 2.82 54.22 3.51 54.25 4.74 49.31 4.48 44.73 4.51 40.65 4.7 40.68 3.49 40.71 2.82 40.71 2.82L54.18 2.82Z" stroke-width="0" fill="#C18A00"/><path d="M65.42 2.82C65.42 2.82 65.55 3.92 65.64 5.82 61.68 5.27 57.87 4.92 54.26 4.73 54.23 3.5 54.2 2.81 54.2 2.81L65.43 2.81Z" stroke-width="0" fill="#E2A700"/><path d="M29.49 2.82 40.73 2.82C40.73 2.82 40.7 3.49 40.67 4.7 36.24 4.91 32.39 5.3 29.28 5.73 29.37 3.88 29.5 2.83 29.5 2.83Z" stroke-width="0" fill="#E2A700"/><path d="M65.64 5.83C66.01 13.81 65.64 35.98 51.91 51.37L49.13 51.37C54.53 35.22 54.42 11.58 54.26 4.75 57.87 4.94 61.68 5.28 65.64 5.84Z" stroke-width="0" fill="#F9B200"/><path d="M45.79 51.36 43.01 51.36C29.22 35.91 28.91 13.62 29.28 5.72 32.39 5.3 36.24 4.91 40.67 4.69 40.51 11.47 40.38 35.17 45.79 51.35Z" stroke-width="0" fill="#F9B200"/><path d="M74.1 8.42C74.12 9.41 74.11 10.5 74.07 11.69 73.84 17.24 72.72 24.8 69.13 32.55 68.84 33.17 68.53 33.8 68.21 34.43 65.18 40.31 60.66 46.21 53.96 51.36L51.91 51.36C65.65 35.97 66.01 13.8 65.64 5.82 68.39 6.2 71.2 6.68 74.07 7.28 74.08 7.64 74.1 8.02 74.1 8.42Z" stroke-width="0" fill="#C18A00"/><path d="M43 51.36 40.96 51.36C34.23 46.2 29.7 40.28 26.68 34.38 26.36 33.75 26.05 33.13 25.76 32.51 22.19 24.77 21.08 17.24 20.84 11.69 20.8 10.5 20.79 9.41 20.81 8.43 20.81 8.01 20.82 7.62 20.84 7.25 21.57 7.07 24.57 6.37 29.27 5.73 28.9 13.62 29.21 35.92 43 51.37Z" stroke-width="0" fill="#C18A00"/><path d="M54.26 4.74C54.42 11.57 54.53 35.21 49.13 51.36L45.79 51.36C40.37 35.18 40.51 11.48 40.67 4.7 44.75 4.51 49.33 4.48 54.27 4.74Z" stroke-width="0" fill="#E2A700"/><path d="M72.5 0C73.39 0 74.11 0.63 74.11 1.41 74.11 1.8 73.93 2.15 73.64 2.41 73.35 2.66 72.95 2.83 72.51 2.83L21.24 2.83C20.37 2.8 19.68 2.18 19.68 1.42 19.68 1.03 19.86 0.68 20.15 0.42 20.44 0.16 20.84 0.01 21.29 0.01L72.5 0.01Z" stroke-width="0" fill="#FFC303"/></svg>