<svg width="595" height="88" xmlns="http://www.w3.org/2000/svg" xmlns:xlink="http://www.w3.org/1999/xlink" xml:space="preserve" overflow="hidden"><g transform="translate(-1457 -494)"><path d="M2027.13 562.955C2029.15 562.955 2030.79 563.372 2032.07 564.206 2033.64 565.288 2034.43 566.758 2034.43 568.616 2034.43 570.569 2033.62 572.478 2032.01 574.342 2030.63 575.974 2029.01 576.79 2027.13 576.79 2022.86 576.79 2020.72 574.819 2020.72 570.876 2020.72 568.873 2021.24 567.31 2022.29 566.187 2023.62 564.032 2025.23 562.955 2027.13 562.955ZM2002.55 547.219 2002.61 555.404 2003.06 555.295C2005.17 554.588 2006.09 552.706 2005.8 549.65 2005.1 548.103 2004.01 547.293 2002.55 547.219ZM1847.63 537.024 1861.18 538.417 1856.64 576.853 1841.87 575.814 1839.01 562.664 1835.4 576.831 1822.92 577.418 1818.71 537.088 1831.67 537.088 1832.75 552.029 1833.35 543.114 1844.46 543.386 1845.35 552.908ZM1683.7 536.841C1684.86 536.86 1686.03 536.92 1687.22 537.022L1686.53 550.208C1686.06 550.475 1685.38 550.532 1684.51 550.379 1683.6 549.884 1682.53 549.518 1681.31 549.281 1678.14 548.576 1676.61 549.296 1676.73 551.44 1676.61 551.908 1677.09 552.437 1678.18 553.027L1682.52 555.168C1687.4 557.717 1689.89 560.797 1689.99 564.407 1689.99 565.389 1689.77 566.603 1689.34 568.049 1688.66 570.411 1687.29 572.3 1685.24 573.717 1681.35 576.519 1676.38 577.581 1670.32 576.903 1668.38 576.697 1666.51 576.283 1664.69 575.662 1663.16 574.949 1662.53 574.341 1662.8 573.836L1663.53 565.025C1665.04 565.371 1666.36 565.585 1667.47 565.667 1669.76 565.867 1671.61 565.576 1673.01 564.793 1673.72 564.438 1673.86 564.117 1673.41 563.83 1673.15 563.539 1672.14 562.818 1670.37 561.668 1666.68 559.409 1665.02 557.02 1665.37 554.502 1665.37 554.586 1664.92 554.361 1664 553.827L1663.72 552.736C1663.51 551.523 1663.45 550.275 1663.53 548.992 1663.84 544.911 1665.72 541.831 1669.17 539.752 1671.84 538.114 1675.54 537.166 1680.27 536.908 1681.39 536.844 1682.54 536.822 1683.7 536.841ZM1984.49 536.647 1984.16 542.926C1984.04 545.52 1983.99 547.515 1983.99 548.911L1970.93 548.974 1970.93 551.215 1980.66 551.089 1979.72 561.703 1970.44 562.016 1970.3 563.77 1974.04 563.771C1975.26 563.771 1976.25 563.75 1977 563.708 1981.48 563.708 1984.1 564.072 1984.87 564.799L1985.05 576.094 1955.4 576.351 1956.86 536.903ZM1802.49 536.647 1802.16 542.926C1802.04 545.52 1801.99 547.515 1801.99 548.911L1788.93 548.974 1788.93 551.215 1798.66 551.089 1797.72 561.703 1788.44 562.016 1788.3 563.77 1792.04 563.771C1793.26 563.771 1794.25 563.75 1795 563.708 1799.48 563.708 1802.1 564.072 1802.87 564.799L1803.05 576.094 1773.4 576.351 1774.86 536.903ZM1879.11 536.333 1879.3 576.414 1864.15 576.414 1866.44 537.131ZM1658.11 536.333 1658.3 576.414 1643.15 576.414 1645.44 537.131ZM1520.11 536.333 1520.3 576.414 1505.15 576.414 1507.44 537.131ZM1921.32 536.208 1933.69 537.322 1938.99 553.348 1938.49 536.584 1951.66 537.775 1953.27 576.461 1938.62 576.79 1932.55 558.583 1933.05 576.602 1919.15 576.404ZM1884.32 536.208 1896.69 537.322 1901.99 553.348 1901.49 536.584 1914.66 537.775 1916.27 576.461 1901.62 576.79 1895.55 558.583 1896.05 576.602 1882.15 576.404ZM1739.2 536.208 1751.74 537.337 1751.61 551.293 1756.3 551.342 1756.37 536.584 1769.54 537.775 1771.14 576.461 1756.3 576.79 1756.55 561.534 1751.58 561.534 1750.89 576.602 1737.03 576.404ZM1470.32 536.208 1482.69 537.322 1487.99 553.348 1487.49 536.584 1500.66 537.775 1502.27 576.461 1487.62 576.79 1481.55 558.583 1482.05 576.602 1468.15 576.404ZM1584.55 536.145C1586.71 538.315 1588.25 539.944 1589.17 541.032 1592.06 544.822 1593.31 546.717 1592.92 546.717L1580.26 557.627 1594.01 568.145C1592.64 569.762 1590.99 571.451 1589.06 573.212 1586.96 575.331 1585.53 576.391 1584.76 576.391L1576.05 570.449 1576.3 576.414 1561.15 576.414 1561.34 536.333 1574.01 537.132 1574.35 545.751ZM1544.43 536.043C1545.8 536.084 1547.23 536.205 1548.72 536.406 1551.09 536.703 1553.83 537.289 1556.95 538.164L1553.12 550.798C1551.91 550.107 1550.9 549.563 1550.09 549.165 1547.65 548.202 1545.4 548.128 1543.33 548.941 1541.78 549.444 1540.54 550.367 1539.61 551.711 1538.4 553.348 1537.92 555.148 1538.16 557.113 1538.63 560.26 1539.71 562.061 1541.4 562.514 1543.73 563.058 1546.8 562.2 1550.62 559.94L1559.21 570.576C1559.21 571.624 1557.11 572.907 1552.93 574.424 1547.33 576.462 1541.96 576.876 1536.81 575.666 1531.53 574.347 1527.73 570.832 1525.4 565.12 1524.41 562.918 1523.74 560.301 1523.4 557.27 1523.1 554.56 1523.24 551.947 1523.81 549.43 1525.22 543.787 1528.54 539.917 1533.79 537.818 1536.77 536.51 1540.32 535.919 1544.43 536.043ZM2002.55 535.979C2008.86 536.153 2013.39 538.366 2016.14 542.617 2017.42 544.708 2017.95 547.925 2017.73 552.27 2017.47 557.615 2015.87 561.345 2012.91 563.462L2018.5 568.198 2010.84 577.544 2002.65 570.261 2002.6 576.351 1988.9 575.823 1989.86 536.497 1999.74 536.029C2000.71 535.971 2001.65 535.954 2002.55 535.979ZM1615.47 535.266 1628.57 537.597 1619.9 565.089 1619.63 576.351 1603.14 575.83 1602.75 565.109 1593.39 536.893 1607.64 536.019 1611.31 551.778ZM1732.64 534.889 1732.92 545.11 1727.71 545.424 1727.9 576.414 1712.74 576.414 1714.62 546.152 1706.34 546.591 1706.67 536.248ZM2034.81 533.759 2034.02 560.017 2021.16 560.215 2021.1 535.275Z" stroke="#FFFFFF" stroke-width="4" stroke-linejoin="round" stroke-miterlimit="10" fill="#63160E" fill-rule="evenodd"/><text fill-opacity="0" font-family="Arial,Arial_MSFontService,Arial" font-size="43.785" x="1468.15" y="572.071">NICKY IS THE WINNER!</text></g></svg>