<svg viewBox="0 0 2053.64 477.27" xmlns="http://www.w3.org/2000/svg" xmlns:xlink="http://www.w3.org/1999/xlink" id="Isolation_Mode" overflow="hidden"><defs></defs><path d="M568.46 477.27C665.86 447.72 818.83 419.42 1026.82 419.42 1234.81 419.42 1387.79 447.72 1485.18 477.27L2053.64 477.27C2053.64 147.58 1537.93 0 1026.82 0 515.71 0 0 147.58 0 477.27L568.46 477.27Z" stroke-width="0" fill="#54D189"/><g><path d="M433.71 76.85C625.18 96.77 734.2 291.29 692.48 447.66 645.28 456.42 604.36 466.47 570.43 476.68 494.66 219.84 251.31 197.96 94.54 258.07 171.65 178.79 291.19 118.98 433.72 76.85Z" stroke-width="0" fill="#FFE783"/><path d="M897.11 423.47C932.28 253.01 912.05 60.74 759.18 14.2 846.68 4.84 936.75 0 1026.82 0 1057.09 0 1087.36 0.6 1117.55 1.64 1183.35 108.77 1155.3 342.66 1129.05 422.06 1096.41 420.51 1062.74 419.41 1026.82 419.41 980.73 419.41 937.8 420.99 897.11 423.47Z" stroke-width="0" fill="#F9D953"/><path d="M1363 447.93C1344.33 276.47 1474.46 115.04 1580.86 65.41 1728.06 104.43 1852.82 161.83 1937.5 238.1 1824.73 215.24 1595.5 227.93 1481 476.07 1448.12 466.26 1408.87 456.7 1363.72 448.24L1363 447.93Z" stroke-width="0" fill="#FFE783"/></g></svg>