<svg viewBox="0 0 1729.05 1750.62" xmlns="http://www.w3.org/2000/svg" xmlns:xlink="http://www.w3.org/1999/xlink" overflow="hidden"><defs></defs><g><g id="Tail"><g><path d="M1220.6 975.06C1220.6 975.06 1318.85 779.63 1420.89 820.23 1522.92 860.84 1416.65 941.41 1416.65 941.41 1416.65 941.41 1522.74 878.63 1577.49 963.18 1632.23 1047.73 1492.23 1089.09 1492.23 1089.09 1492.23 1089.09 1689.78 1052.16 1711.91 1151.61 1734.04 1251.06 1559.56 1254.84 1559.56 1254.84 1559.56 1254.84 1681.24 1266.68 1652.82 1376.83 1624.4 1486.97 1347.56 1453.97 1230.91 1378.89 1114.26 1303.81 1122.72 1246.12 1123.64 1226.68 1124.57 1207.25 1220.6 975.06 1220.6 975.06Z" stroke-width="0" fill="#FFAE2C"/><path d="M1559.56 1254.84C1559.56 1254.84 1510.47 1234.42 1422.5 1227.04 1334.53 1219.66 1256.01 1235.06 1256.01 1235.06 1256.01 1235.06 1311.98 1203.41 1423.84 1209.78 1535.7 1216.15 1603.88 1250.19 1603.88 1250.19L1559.56 1254.84Z" stroke-width="0" fill="#EF9818"/><path d="M1497.05 1088.27C1497.05 1088.27 1427.26 1088.23 1362.35 1104.28 1297.44 1120.33 1271.37 1133.25 1271.37 1133.25 1271.37 1133.25 1317.3 1087.69 1408.97 1073.92 1500.64 1060.15 1538.19 1068.99 1538.19 1068.99L1497.05 1088.26Z" stroke-width="0" fill="#EF9818"/><path d="M1416.65 941.41C1416.65 941.41 1379.31 959.12 1333.24 997.67 1287.18 1036.22 1265.25 1073.38 1265.25 1073.38 1265.25 1073.38 1280.36 1019.29 1348.78 963.6 1417.2 907.91 1454.56 900.26 1454.56 900.26 1454.56 900.26 1432.27 932.98 1416.64 941.41Z" stroke-width="0" fill="#EF9818"/><path d="M1249.91 928.16C1249.91 928.16 1244.76 960.02 1259.33 1003.16 1273.9 1046.3 1294.17 1027.99 1294.17 1027.99 1294.17 1027.99 1250.49 1087.8 1274.12 1099.67 1297.75 1111.54 1314.65 1106.59 1314.65 1106.59 1314.65 1106.59 1270.85 1135.75 1261.24 1170.09 1251.63 1204.43 1262.15 1218.91 1282.73 1217.87 1303.31 1216.84 1327.64 1219 1327.64 1219 1327.64 1219 1267.18 1232.37 1232.18 1279.69 1197.18 1327.01 1227.19 1372.17 1227.19 1372.17 1227.19 1372.17 1168.01 1341.99 1152.76 1305.25 1137.51 1268.5 1234.06 953.8 1234.06 953.8L1249.93 928.17Z" stroke-width="0" fill="#AF6E0E" opacity="0.62"/><path d="M1305.41 858.05C1305.41 858.05 1275.29 884.97 1269.9 945.74 1264.51 1006.51 1291.65 1002.52 1320.15 985.74 1348.66 968.96 1374.1 952.78 1375.78 951.06 1377.46 949.35 1308.83 1002.92 1303.09 1045.96 1297.34 1089.01 1436.73 1081.63 1436.73 1081.63 1436.73 1081.63 1358.46 1085.62 1336.71 1133.28 1314.96 1180.94 1456.11 1217.56 1456.11 1217.56 1456.11 1217.56 1345.06 1223.23 1303.05 1269.58 1261.04 1315.94 1370.24 1403 1477.31 1413.14 1584.38 1423.28 1633.97 1402.72 1633.97 1402.72 1633.97 1402.72 1606.86 1441.54 1527.5 1443.49 1448.13 1445.43 1372.46 1438.79 1304.58 1410.64 1236.69 1382.49 1179.54 1345.42 1163.18 1320.81 1146.82 1296.2 1234.05 953.79 1234.05 953.79 1234.05 953.79 1281.59 873.16 1305.41 858.04Z" stroke-width="0" fill="#EF9818" opacity="0.29"/><path d="M1359.22 821.39C1359.22 821.39 1387.25 802.64 1428.16 819.6 1469.06 836.57 1477.96 866.65 1461.27 895.8 1444.57 924.95 1419.76 939.65 1419.76 939.65 1419.76 939.65 1466.35 899.53 1459.14 862.02 1451.93 824.51 1390.37 807.75 1359.22 821.38Z" stroke-width="0" fill="#FFEECC"/><path d="M1453.85 925.79C1453.85 925.79 1528.53 891.87 1578.28 956.71 1628.03 1021.55 1554.3 1065.97 1538.16 1073.45 1522.02 1080.93 1494.76 1088.29 1494.76 1088.29 1494.76 1088.29 1574.35 1051.78 1579.03 998.77 1583.71 945.75 1521.79 915.84 1453.85 925.79Z" stroke-width="0" fill="#FFEECC"/><path d="M1543.34 1083.26C1543.34 1083.26 1672.01 1068.35 1708.87 1133.54 1745.73 1198.73 1688.28 1229.79 1669.07 1238.41 1649.86 1247.04 1564.61 1255.55 1564.61 1255.55 1564.61 1255.55 1646.43 1257.36 1660.47 1331.64 1674.51 1405.93 1625.55 1442.56 1568.81 1449.76 1512.07 1456.96 1386.37 1438.63 1386.37 1438.63 1386.37 1438.63 1553.35 1452.04 1612.51 1406.07 1671.67 1360.1 1634.72 1292.32 1604.78 1276.11 1574.84 1259.9 1450.64 1229.99 1450.64 1229.99 1450.64 1229.99 1638.8 1251.76 1686.59 1206.53 1734.38 1161.31 1691.45 1110.97 1640.06 1096.52 1588.67 1082.08 1543.34 1083.26 1543.34 1083.26Z" stroke-width="0" fill="#FFEECC"/></g></g><g id="Hair_2"><g><path d="M778.13 349.41C778.13 349.41 786.47 330.77 765.39 295.27 744.31 259.78 686.99 182.52 708.97 67.95 730.95-46.62 844.11-13.84 842.76 159.77 841.89 270.62 778.14 349.41 778.14 349.41Z" stroke-width="0" fill="#FF5952"/><path d="M778.55 173.39C729.31 173.39 689.4 134.58 689.4 86.7 689.4 38.82 729.31 0 778.55 0 778.55 0 841.22 0.13 841.22 123.23" stroke-width="0" fill="#FF5952"/><path d="M741.67 237.23C692.43 237.23 652.52 198.42 652.52 150.54 652.52 102.66 692.44 63.85 741.67 63.85" stroke-width="0" fill="#FF5952"/><path d="M778.77 347.41C785.75 296.77 757.44 312.77 727.99 312.77 678.75 312.77 638.84 273.96 638.84 226.08 638.84 178.2 678.76 139.39 727.99 139.39 727.99 139.39 769.22 134.78 796.75 177.23" stroke-width="0" fill="#FF5952"/><path d="M816.94 99.97C816.94 99.97 818.46 45.68 784.46 34.82 750.46 23.97 713.62 62.3 713.62 62.3L699.11 60.11C699.11 60.11 717.17 16.85 758.54 7.12 799.91-2.61 820.28 29.04 824.43 47.42 828.26 64.36 816.94 99.96 816.94 99.96Z" stroke-width="0" fill="#FFCFC4"/><path d="M816.43 157.81C816.43 157.81 786.6 108.99 743.64 103.19 700.67 97.39 673.93 140.7 673.93 140.7L656.56 140.65C656.56 140.65 660 95.19 703.2 79.53 746.41 63.87 784.33 100.73 796.33 118.33 807.38 134.55 816.44 157.81 816.44 157.81Z" stroke-width="0" fill="#FFCFC4"/><path d="M792 188.26C792 188.26 749.82 160.49 710.32 173.96 670.81 187.44 668.29 226.37 668.29 226.37L650.3 248.65C650.3 248.65 632.22 209.91 665.73 169.12 695.04 133.44 746.62 152.72 764.16 164.35 780.32 175.06 792.02 188.26 792.02 188.26Z" stroke-width="0" fill="#FFCFC4"/><circle cx="679.29" cy="245.86" r="31.42" stroke-width="0" fill="#FFCFC4"/><path d="M671.26 279.28C671.26 279.28 680.14 294.04 709.04 277.28 737.95 260.52 746.73 239.13 768.3 266.85 789.87 294.56 793.37 275.63 807.49 248.92 821.61 222.21 825.96 190.62 828.51 164.58 831.06 138.54 828.91 106.25 828.91 106.25 828.91 106.25 848.93 185.94 820.8 265.14 792.67 344.34 778.55 343.99 778.55 343.99 778.55 343.99 779.4 333.19 772.92 315.3 768.29 302.52 736.64 314.86 717.88 314.7 699.11 314.54 678.2 303.55 672.44 293.53 666.68 283.51 671.25 279.28 671.25 279.28Z" stroke-width="0" fill="#919191"/></g></g><g id="R-Hand"><g><path d="M454.32 937.3C454.32 937.3 520.65 865.42 423.54 708.5 326.44 551.58 337.49 489.53 359.01 410.44 387.03 307.45 425.11 255.28 404.84 228.51 384.57 201.74 314.07 213.41 264.77 271.26 215.47 329.12 205.38 351.99 205.38 351.99 205.38 351.99 210.57 267.54 152.17 308.31 93.78 349.08 89.41 450.53 89.41 450.53 89.41 450.53 44.07 418.64 8.6 531.32-26.87 644 47.88 907.97 222.51 978.1 389.8 1045.28 454.32 937.29 454.32 937.29Z" stroke-width="0" fill="#FFAE2C"/><path d="M205.38 352C205.38 352 167.71 480.88 208.51 622.46 249.31 764.04 312.73 814.21 312.73 814.21 312.73 814.21 227.2 709.13 209.67 573.85 193.58 449.75 209.13 352.11 245.97 293.95L205.39 352Z" stroke-width="0" fill="#EF9818"/><path d="M89.41 450.54C89.41 450.54 59.07 543.52 100.82 672.41 142.57 801.3 174.54 828.48 174.54 828.48 174.54 828.48 89.38 751.29 70.75 606.82 52.12 462.35 72.43 446.44 72.43 446.44 72.43 446.44 80.21 443.58 89.41 450.55Z" stroke-width="0" fill="#EF9818"/><path d="M459.77 783.78C459.77 783.78 515.85 902.9 421.04 970.97 326.24 1039.05 192.03 976.26 131.1 917.44 67.8 856.33 34.26 764.4 34.26 764.4 34.26 764.4 115.75 931.51 246.16 975.99 376.57 1020.47 493.14 957.08 459.76 783.78Z" stroke-width="0" fill="#FFEECC"/><path d="M58.73 811.08C58.73 811.08 9.2 705.01 6.92 637.46 4.64 569.91 3.2 524.72 35.21 481.81 67.22 438.9 88.52 453.58 88.52 453.58 88.52 453.58 89.59 411.09 121.95 351.23 154.31 291.37 185.79 295.6 194.21 308.39 202.63 321.18 201.65 367.19 201.65 367.19 201.65 367.19 233.74 299.32 293.5 250.61 353.26 201.89 409.79 209.24 407.68 246.34 405.57 283.43 378.29 338.53 362.69 388.68 347.09 438.83 341.42 461.93 341.42 461.93 341.42 461.93 346.38 398.72 360.5 353.26 374.62 307.8 349.41 269.94 284.45 323.27 219.49 376.59 204.38 516.99 204.38 516.99 204.38 516.99 199.09 406.68 161.24 419.74 123.39 432.8 93.02 509.7 89.07 559.05 85.12 608.4 90.89 668.02 90.89 668.02 90.89 668.02 65.64 547.52 42.25 592.45 18.86 637.38 23.17 726.32 58.75 811.09Z" stroke-width="0" fill="#EF9818" opacity="0.29"/><path d="M407.5 267.44C407.5 267.44 363.19 386.5 350.23 460.67 337.27 534.84 374.96 619.36 374.96 619.36 374.96 619.36 314.78 547.22 344.24 435.33 373.7 323.44 407.5 267.44 407.5 267.44Z" stroke-width="0" fill="#FFEECC"/><path d="M397.49 664.02C397.49 664.02 396.76 716.56 265.84 794.04 134.93 871.51 75.68 846.48 75.68 846.48 75.68 846.48 129.95 946.68 234.04 982.83 338.13 1018.98 403.36 991.55 436.23 958.46 469.1 925.38 488.02 883.54 469.75 812.2 451.48 740.86 397.49 664.01 397.49 664.01Z" stroke-width="0" fill="#FFEECC"/><path d="M95.07 850.05C82 849.15 75.68 846.48 75.68 846.48 75.68 846.48 129.95 946.68 234.04 982.83 306.12 1007.86 359.55 1002.4 396.51 985.69 358.77 993.51 310.66 991.42 251.21 970.77 174.46 944.12 121.94 886.32 95.06 850.04Z" stroke-width="0" fill="#FFFFFF"/><path d="M443.21 833.74C460.99 903.17 443.55 944.64 412.31 977.31 421.63 971.57 429.6 965.14 436.23 958.47 469.1 925.39 488.02 883.55 469.75 812.21 451.48 740.87 397.49 664.02 397.49 664.02 397.49 664.02 397.3 677.23 380.63 700.16 397.02 725.82 429.78 781.27 443.22 833.74Z" stroke-width="0" fill="#EFDCBB"/></g></g><g id="Body"><g><path d="M393.01 725.63C393.01 725.63 362.57 651.71 397.36 587.93 432.15 524.15 366.92 309.63 674.21 319.78 981.5 329.93 936.56 495.17 969.9 625.62 1003.24 756.07 1048.17 828.55 1097.45 870.58 1146.73 912.61 1210.51 973.49 1239.5 1053.21 1268.49 1132.93 1251.55 1438.73 830.86 1468.08 410.17 1497.43 211.71 1234.14 260.62 1018.9 309.54 803.67 394.73 791.09 393.01 725.63Z" stroke-width="0" fill="#FFCD48"/><path d="M393.01 725.63C393.01 725.63 362.57 651.71 397.36 587.93 432.15 524.15 366.92 309.63 674.21 319.78 981.5 329.93 936.56 495.17 969.9 625.62 1003.24 756.07 1048.17 828.55 1097.45 870.58 1146.73 912.61 1210.51 973.49 1239.5 1053.21 1268.49 1132.93 1251.55 1438.73 830.86 1468.08 410.17 1497.43 211.71 1234.14 260.62 1018.9 309.54 803.67 394.73 791.09 393.01 725.63Z" stroke-width="0" fill="#FFC950"/><path d="M388.28 734.05C388.28 734.05 384.92 832.28 669.18 833.57 927.28 834.74 996.73 712.42 996.73 712.42 1025.79 790.15 1060.38 838.96 1097.44 870.57 1146.72 912.6 1210.5 973.48 1239.49 1053.2 1268.48 1132.92 1251.54 1438.72 830.85 1468.07 410.16 1497.42 211.7 1234.13 260.61 1018.89 309.53 803.66 374.83 800.64 388.28 734.04Z" stroke-width="0" fill="#FFEECC"/><path d="M743.67 1337.57C1055.83 1325.83 1241.78 1181.33 1241.78 1181.33 1217.08 1299.16 1118.05 1448.04 830.85 1468.08 558.52 1487.08 379.31 1383.44 300.05 1249.59 300.05 1249.59 454.95 1348.43 743.67 1337.57Z" stroke-width="0" fill="#433510"/><path d="M397.48 734.05C397.48 734.05 392.77 760.41 380.81 775.63 368.85 790.85 307.61 862.6 277.17 974.93 246.73 1087.26 247.05 1147.89 305.23 1250.2 363.41 1352.51 483.72 1432.52 653.3 1458.1 822.89 1483.69 975.08 1451.8 1083.07 1391.65 1191.06 1331.5 1249.76 1211.19 1243.24 1105.74 1236.72 1000.29 1153.97 923.26 1153.97 923.26 1153.97 923.26 1227.77 1066.6 1153.97 1193.79 1080.17 1320.98 467.96 1470.32 339.86 1203.57 241.69 999.16 390.42 776.34 424.11 805.69 457.8 835.04 628.98 816.96 540.62 813.39 466.69 810.4 397.47 734.03 397.47 734.03Z" stroke-width="0" fill="#EF9818" opacity="0.29"/><path d="M640.56 1179.07C638.88 1190.73 569.04 1187.3 484.56 1171.41 400.09 1155.52 332.97 1133.18 334.65 1121.52 336.33 1109.86 406.17 1113.29 490.65 1129.18 575.12 1145.07 642.24 1167.41 640.56 1179.07Z" stroke-width="0" fill="#EF9818" opacity="0.29"/><g><path d="M565.81 953.35C565.81 953.35 608.36 954.56 631.95 1037.25 655.54 1119.93 612.77 1180.32 612.77 1180.32 612.77 1180.32 564.22 1165.41 546.99 1090.79 529.76 1016.17 565.81 953.35 565.81 953.35Z" stroke-width="0" fill="#E7BF68"/><path d="M565.81 953.35C565.81 953.35 608.36 954.56 631.95 1037.25 655.54 1119.93 612.77 1180.32 612.77 1180.32 612.77 1180.32 619.25 1118.99 609.02 1053.25 598.78 987.51 565.81 953.35 565.81 953.35Z" stroke-width="0" fill="#F8DFA6"/><path d="M565.81 953.35C565.81 953.35 546.09 999.36 569.69 1082.05 593.28 1164.73 612.78 1180.33 612.78 1180.33 612.78 1180.33 564.23 1165.42 547 1090.8 529.77 1016.18 565.82 953.36 565.82 953.36Z" stroke-width="0" fill="#CA8E2C"/></g><g><path d="M339.52 1117.74C339.52 1117.74 340.54 1072.86 407.13 1050.72 473.72 1028.58 522.3 1075.75 522.3 1075.75 522.3 1075.75 510.25 1126.5 450.16 1142.2 390.07 1157.9 339.53 1117.74 339.53 1117.74Z" stroke-width="0" fill="#E7BF68"/><path d="M339.52 1117.74C339.52 1117.74 340.54 1072.86 407.13 1050.72 473.72 1028.58 522.3 1075.75 522.3 1075.75 522.3 1075.75 472.93 1066.85 420 1075.46 367.06 1084.07 339.53 1117.73 339.53 1117.73Z" stroke-width="0" fill="#F8DFA6"/><path d="M339.52 1117.74C339.52 1117.74 376.54 1140.09 443.13 1117.95 509.72 1095.81 522.29 1075.75 522.29 1075.75 522.29 1075.75 510.24 1126.5 450.15 1142.2 390.06 1157.9 339.52 1117.74 339.52 1117.74Z" stroke-width="0" fill="#CA8E2C"/></g><g><path d="M349.94 999.73C349.94 999.73 405.02 970.81 517.32 1031.22 629.61 1091.63 635.66 1178.14 635.66 1178.14 635.66 1178.14 559.33 1198.53 463.13 1141.15 366.93 1083.77 349.95 999.73 349.95 999.73Z" stroke-width="0" fill="#E7BF68"/><path d="M349.94 999.73C349.94 999.73 405.02 970.81 517.32 1031.22 629.61 1091.63 635.66 1178.14 635.66 1178.14 635.66 1178.14 582.74 1116.39 504.24 1062.34 425.74 1008.29 349.94 999.73 349.94 999.73Z" stroke-width="0" fill="#F8DFA6"/><path d="M349.94 999.73C349.94 999.73 370.84 1056.55 483.14 1116.96 595.43 1177.37 635.66 1178.14 635.66 1178.14 635.66 1178.14 559.33 1198.53 463.13 1141.15 366.93 1083.77 349.95 999.73 349.95 999.73Z" stroke-width="0" fill="#CA8E2C"/></g><ellipse cx="379.16" cy="892.12" rx="4.32" ry="9.83" stroke-width="0" fill="#EDD7B0"/><ellipse cx="350.85" cy="971.24" rx="14.38" ry="5.38" stroke-width="0" fill="#EDD7B0"/><ellipse cx="471.13" cy="926.73" rx="6.67" ry="18" stroke-width="0" fill="#EDD7B0"/><ellipse cx="430.93" cy="983" rx="2.87" ry="6.38" stroke-width="0" fill="#EDD7B0"/><ellipse cx="392.61" cy="1005.06" rx="4.32" ry="2.1" stroke-width="0" fill="#EDD7B0"/><ellipse cx="496.04" cy="1003.95" rx="5.56" ry="1.11" stroke-width="0" fill="#EDD7B0"/><ellipse cx="555.76" cy="865" rx="3.23" ry="1.92" stroke-width="0" fill="#EDD7B0"/><ellipse cx="724.03" cy="1170.92" rx="9.1" ry="7.2" stroke-width="0" fill="#EDD7B0"/><ellipse cx="656.86" cy="980.22" rx="12.32" ry="3.61" stroke-width="0" fill="#EDD7B0"/><ellipse cx="590.09" cy="928.51" rx="3.12" ry="8.76" stroke-width="0" fill="#EDD7B0"/><ellipse cx="467.45" cy="870.29" rx="11.61" ry="6.24" stroke-width="0" fill="#EDD7B0"/><ellipse cx="524.06" cy="1047.22" rx="20.41" ry="9.66" stroke-width="0" fill="#EDD7B0"/><ellipse cx="710.97" cy="1092.39" rx="3.95" ry="10.31" stroke-width="0" fill="#EDD7B0"/><ellipse cx="682.83" cy="1041.03" rx="6.65" ry="3.48" stroke-width="0" fill="#EDD7B0"/><ellipse cx="683.83" cy="924.13" rx="14.65" ry="4.38" stroke-width="0" fill="#EDD7B0"/><ellipse cx="529.75" cy="1250.48" rx="10.83" ry="6.4" stroke-width="0" fill="#EDD7B0"/><ellipse cx="425.45" cy="1237.93" rx="8.35" ry="1.68" stroke-width="0" fill="#EDD7B0"/><ellipse cx="327.77" cy="1101.97" rx="0.32" ry="7" stroke-width="0" fill="#EDD7B0"/><ellipse cx="658.72" cy="1254.2" rx="10.46" ry="4.61" stroke-width="0" fill="#EDD7B0"/><ellipse cx="798.62" cy="1003.89" rx="5.89" ry="9.03" stroke-width="0" fill="#EDD7B0"/><ellipse cx="739.04" cy="983" rx="5.91" ry="6.38" stroke-width="0" fill="#EDD7B0"/><ellipse cx="700.83" cy="852.2" rx="10.14" ry="7.68" stroke-width="0" fill="#EDD7B0"/><ellipse cx="833.35" cy="825.59" rx="7.71" ry="6.69" stroke-width="0" fill="#EDD7B0"/><ellipse cx="903.48" cy="796.4" rx="10.52" ry="6.95" stroke-width="0" fill="#EDD7B0"/><ellipse cx="970.03" cy="835.05" rx="2.88" ry="9.46" stroke-width="0" fill="#EDD7B0"/><ellipse cx="839.34" cy="871.73" rx="18.19" ry="4.8" stroke-width="0" fill="#EDD7B0"/><ellipse cx="772.81" cy="901.8" rx="6.72" ry="6.92" stroke-width="0" fill="#EDD7B0"/><ellipse cx="885.83" cy="938.16" rx="12.17" ry="6.56" stroke-width="0" fill="#EDD7B0"/><ellipse cx="869.82" cy="998.36" rx="1.28" ry="6.7" stroke-width="0" fill="#EDD7B0"/><ellipse cx="813.47" cy="1092.39" rx="3.2" ry="10.31" stroke-width="0" fill="#EDD7B0"/><ellipse cx="1063.52" cy="1149.5" rx="13.13" ry="11.34" stroke-width="0" fill="#EDD7B0"/><ellipse cx="1114.78" cy="1029.72" rx="1.64" ry="7.83" stroke-width="0" fill="#EDD7B0"/><ellipse cx="1003.33" cy="936.4" rx="0.96" ry="4.8" stroke-width="0" fill="#EDD7B0"/><ellipse cx="920.26" cy="1090.02" rx="9.75" ry="10.51" stroke-width="0" fill="#EDD7B0"/><ellipse cx="846.57" cy="1201.59" rx="7.24" ry="8.72" stroke-width="0" fill="#EDD7B0"/><ellipse cx="769.14" cy="1267.45" rx="7.83" ry="8.64" stroke-width="0" fill="#EDD7B0"/><ellipse cx="981.72" cy="1273.66" rx="21.61" ry="9.73" stroke-width="0" fill="#EDD7B0"/><ellipse cx="1131.71" cy="939.1" rx="18.57" ry="5.62" stroke-width="0" fill="#EDD7B0"/><path d="M1005.27 734.05C1005.27 734.05 864.25 812.17 813.13 912.54 769.45 998.28 704.74 1338.61 704.74 1338.61L653.88 1337.58C653.88 1337.58 697.49 979.3 777.27 862.18 855.16 747.83 994.92 707.54 994.92 707.54L1005.27 734.04Z" stroke-width="0" fill="#4385B5"/><path d="M391.21 758.74C391.21 758.74 320.61 870.1 312.77 939.1 306.06 998.05 300.06 1181.33 300.06 1181.33L272.34 1174.29C272.34 1174.29 267.87 1009.08 287.37 924.14 306.41 841.2 383.49 745.82 383.49 745.82L391.22 758.75Z" stroke-width="0" fill="#4385B5"/><path d="M251.42 1130.58C251.42 1130.58 369.29 1260.11 790.59 1250.19 1211.89 1240.27 1252.9 1109.52 1252.9 1109.52 1252.9 1109.52 1254.68 1244.27 1183.03 1336.03 1111.39 1427.79 982.59 1507.91 729.35 1484.04 476.11 1460.17 402.63 1406.8 334.51 1342.48 266.39 1278.16 251.42 1130.59 251.42 1130.59Z" stroke-width="0" fill="#4385B5"/><path d="M255.09 1136.23C255.09 1136.23 276.92 1256.49 309.15 1305.94 341.38 1355.39 393.68 1388.1 416.89 1403.21 440.1 1418.32 489.66 1436.04 489.66 1436.04L550.84 1451.19C550.84 1451.19 592.11 1462.84 663.58 1471.96 735.06 1481.09 800.15 1486.79 800.15 1486.79L856.28 1486.26C856.28 1486.26 923.81 1481.76 992.65 1459.2 1061.49 1436.64 1101.33 1404.64 1142.18 1370.34 1183.04 1336.04 1201.27 1273.05 1201.27 1273.05 1201.27 1273.05 1086.78 1483.2 739.68 1419.5 392.58 1355.8 373.32 1213.86 373.32 1213.86 373.32 1213.86 263.45 1193.44 255.1 1136.23Z" stroke-width="0" fill="#2E7099"/></g><path d="M718 1254.75C747.84 1258.49 775.95 1253.66 805.6 1252.69 837.56 1251.65 869.55 1250.47 901.38 1247.28 928.34 1244.58 960.69 1240.98 986.79 1234.34 1043.75 1219.83 1098.63 1208.8 1152.93 1183.99 1180.98 1171.17 1245.66 1148.06 1253.01 1111.83 1248 1136.53 1245.42 1161.72 1245.29 1186.92 1206.2 1200.24 1169.78 1220.26 1131.75 1236.35 1007.17 1289.06 868.88 1298.37 733.61 1299.9 737.16 1285.51 744.55 1269.7 743.11 1254.96 752.95 1254.48 762.83 1254.1 772.72 1253.76" stroke-width="0"/><path d="M721.08 1273.96C733.08 1274.56 745.07 1275.15 757.07 1275.75" stroke-width="0" fill="none"/><path d="M315.49 1175.53C293.66 1164.23 273.98 1148.79 257.81 1130.28 255.61 1127.76 251.56 1125.13 249.46 1127.73 248.9 1128.43 248.7 1129.34 248.55 1130.22 245.64 1147.19 254.7 1163.8 264.54 1177.93" stroke-width="0"/></g><g id="L-Leg"><g><path d="M877.4 1415.5 984.68 1662.43C984.68 1662.43 954.6 1717.46 940.54 1728.1 926.48 1738.74 964.38 1686.15 964.38 1686.15 964.38 1686.15 908.35 1722.87 902.57 1725.9 896.79 1728.93 939.19 1691.17 939.19 1691.17 939.19 1691.17 882.33 1718.51 882.57 1714.29 882.81 1710.07 958.11 1663.26 958.11 1663.26L826.04 1442.41 877.4 1415.5Z" stroke-width="0" fill="#AF6E0E"/><path d="M920.7 1515.17 878.78 1530.59 833.48 1454.85 880.06 1421.63 920.7 1515.17Z" stroke-width="0" fill="#433510"/><path d="M904.85 1478.69 984.68 1662.43 981.4 1668.3 904.85 1478.69Z" stroke-width="0" fill="#FFEECC"/><path d="M892.3 1712.08C893.16 1711.75 939.19 1691.17 939.19 1691.17L922.52 1694.3 892.3 1712.07Z" stroke-width="0" fill="#FFEECC"/><path d="M964.38 1686.15C964.38 1686.15 910.33 1721.16 911.64 1720.33 912.94 1719.5 962.46 1682.47 962.46 1682.47L964.39 1686.15Z" stroke-width="0" fill="#FFEECC"/><path d="M925.81 1418.36 949.82 1479.1C949.82 1479.1 939.25 1495.91 898.61 1509.38 857.97 1522.85 833.22 1525.18 833.22 1525.18L797.83 1469.11C797.83 1469.11 738.43 1402.69 830.07 1370.91 921.71 1339.13 925.82 1418.36 925.82 1418.36Z" stroke-width="0" fill="#4385B5"/><path d="M792.58 1402.17C792.58 1402.17 763.94 1427.31 819.23 1488.85 840.36 1512.37 864.32 1507.1 864.32 1507.1L914.08 1487.1 891.59 1424.01C891.59 1424.01 890.88 1363.49 856.02 1368.93 821.16 1374.37 792.59 1402.16 792.59 1402.16Z" stroke-width="0" fill="#2E7099"/></g><g><path d="M718.12 1421.81 710.3 1690.92C710.3 1690.92 659.69 1727.95 642.44 1731.61 625.19 1735.27 681.85 1703.77 681.85 1703.77 681.85 1703.77 615.52 1713.2 609.01 1713.48 602.5 1713.76 656.92 1697.6 656.92 1697.6 656.92 1697.6 593.83 1698.18 595.85 1694.47 597.86 1690.75 685.91 1680.38 685.91 1680.38L660.21 1424.34 718.13 1421.81Z" stroke-width="0" fill="#AF6E0E"/><path d="M714.96 1530.43 670.46 1526.58 661.65 1438.77 717.93 1428.49 714.96 1530.43Z" stroke-width="0" fill="#433510"/><path d="M716.12 1490.68 710.3 1690.92 704.84 1694.84 716.12 1490.68Z" stroke-width="0" fill="#FFEECC"/><path d="M605.58 1696.61C606.5 1696.68 656.91 1697.61 656.91 1697.61L640.49 1693.36 605.58 1696.61Z" stroke-width="0" fill="#FFEECC"/><path d="M681.84 1703.77C681.84 1703.77 618.04 1712.5 619.57 1712.3 621.1 1712.11 681.66 1699.62 681.66 1699.62L681.84 1703.77Z" stroke-width="0" fill="#FFEECC"/><path d="M760.73 1444.97 756.66 1510.15C756.66 1510.15 739.94 1520.88 697.43 1515.79 654.92 1510.71 631.52 1502.3 631.52 1502.3L623.31 1436.51C623.31 1436.51 597.77 1351.14 694.22 1361.32 790.68 1371.49 760.73 1444.96 760.73 1444.96Z" stroke-width="0" fill="#4385B5"/><path d="M647 1373.7C647 1373.7 610.39 1384.29 634.29 1463.49 643.42 1493.76 667.35 1499.18 667.35 1499.18L720.89 1502.22 727.34 1435.55C727.34 1435.55 752.42 1380.46 718.55 1370.58 684.68 1360.69 647 1373.71 647 1373.71Z" stroke-width="0" fill="#2E7099"/></g></g><g id="R-cheek"><path d="M444.87 568.48C443.56 578.7 453.58 589.68 467.25 593 480.92 596.33 493.06 590.74 494.37 580.53 495.68 570.31 485.66 559.33 471.99 556.01 458.32 552.68 446.18 558.27 444.87 568.48Z" stroke-width="0" fill="#EA512D" opacity="0.23"/><path d="M523.35 390.68C523.35 390.68 471.37 363.33 455.85 433.27 440.33 503.21 448.43 544.59 498.64 550.64 548.84 556.68 553.95 445.51 547 421.75 540.05 397.99 523.35 390.69 523.35 390.69Z" stroke-width="0" fill="#FFFFFF"/></g><g id="R-eyesbrown"><path d="M553.62 326.19C553.62 326.19 507.37 335.15 490.97 365.25" stroke="#212121" stroke-width="15" stroke-miterlimit="10" fill="none"/></g><g id="R-Eye"><path d="M522.43 420.95C522.43 420.95 541.93 420.59 539.8 444.35 537.67 468.11 530.85 479.52 514.09 473.64 497.33 467.76 507.01 433 511.66 426.8 516.32 420.61 522.43 420.95 522.43 420.95Z" stroke-width="0" fill="#212121"/></g><g id="L-cheek"><ellipse cx="676.17" cy="619.36" rx="22.3" ry="41.15" stroke-width="0" fill="#EA512D" opacity="0.23" transform="matrix(0.289032 -0.957319 0.957319 0.289032 -112.16 1087.71)"/><path d="M758.41 413.23C758.41 413.23 690.04 378.52 662.69 456.36 635.34 534.2 642.7 581.53 710.55 592.05 778.39 602.57 795.22 477.4 787.86 450.05 780.5 422.7 758.41 413.23 758.41 413.23Z" stroke-width="0" fill="#FFFFFF"/></g><g id="L-Eye"><path d="M751.12 442.05C751.12 442.05 730.34 431.5 722.03 455.15 713.72 478.8 715.96 493.18 736.57 496.38 757.19 499.58 762.3 461.54 760.06 453.23 757.82 444.92 751.11 442.04 751.11 442.04Z" stroke-width="0" fill="#212121"/></g><g id="L-eyesbrown"><path d="M700.92 323.16C700.92 323.16 766.03 349.1 782.43 384.37" stroke="#212121" stroke-width="15" stroke-miterlimit="10" fill="none"/></g><g id="L-Hand"><g><path d="M860.31 918.82C860.31 918.82 815.4 821.77 973.05 692.83 1130.7 563.89 1140.76 495.96 1145.74 406.81 1152.23 290.73 1130.27 223.73 1161.08 203.01 1191.89 182.29 1262.32 218.52 1294.14 295.24 1325.96 371.96 1328.61 399.07 1328.61 399.07 1328.61 399.07 1352.73 309.98 1400.16 372.16 1447.59 434.33 1416.64 540.72 1416.64 540.72 1416.64 540.72 1475.74 523.3 1473.73 651.95 1471.72 780.6 1300.17 1027.88 1091.01 1040.5 890.63 1052.59 860.3 918.83 860.3 918.83Z" stroke-width="0" fill="#FFAE2C"/><path d="M1328.61 399.07C1328.61 399.07 1323.25 545.22 1230.49 677.61 1137.73 809.99 1053.12 840.11 1053.12 840.11 1053.12 840.11 1180.35 760.8 1246.31 626.96 1306.82 504.17 1324.61 397.9 1306.06 325.14L1328.61 399.07Z" stroke-width="0" fill="#EF9818"/><path d="M1416.65 540.71C1416.65 540.71 1416.12 647.24 1326.81 766.18 1237.5 885.11 1194.18 902.25 1194.18 902.25 1194.18 902.25 1311.25 851.65 1381.59 708.67 1451.93 565.7 1436.03 542.28 1436.03 542.28 1436.03 542.28 1428.82 536.65 1416.65 540.7Z" stroke-width="0" fill="#EF9818"/><path d="M908.36 758.24C908.36 758.24 807.33 862.16 883.67 965.05 960.01 1067.94 1123.87 1049.04 1208.89 1009.12 1297.22 967.65 1364.9 884.11 1364.9 884.11 1364.9 884.11 1220.18 1028.93 1066.75 1030.2 913.31 1031.47 812.33 925.96 908.36 758.24Z" stroke-width="0" fill="#FFEECC"/><path d="M1322.69 923.98C1322.69 923.98 1412.23 831.3 1438.31 762.25 1464.39 693.2 1481.76 646.97 1462.97 591.63 1444.18 536.29 1416.52 544.17 1416.52 544.17 1416.52 544.17 1430.28 499.87 1417.07 426.89 1403.85 353.91 1369.1 347.49 1355.71 357.82 1342.33 368.15 1327.23 416.06 1327.23 416.06 1327.23 416.06 1317.1 334.89 1271.01 264.04 1224.93 193.19 1162.6 181.4 1151.83 220.47 1141.06 259.54 1150.58 325.86 1149.49 383.05 1148.39 440.25 1146.3 466.07 1146.3 466.07 1146.3 466.07 1163.22 399.01 1164.23 347.18 1165.24 295.34 1205.16 264.84 1255.12 342.25 1305.08 419.65 1271.84 569.98 1271.84 569.98 1271.84 569.98 1316.1 457.76 1351.53 484.24 1386.95 510.72 1392.1 600.64 1378.98 653.01 1365.86 705.39 1338.86 765.05 1338.86 765.05 1338.86 765.05 1407.79 649.13 1416.76 703.6 1425.73 758.07 1390 848.54 1322.68 923.98Z" stroke-width="0" fill="#EF9818" opacity="0.29"/><path d="M1144.62 242.35C1144.62 242.35 1149.72 380.63 1137.41 461.76 1125.11 542.88 1055.64 617.34 1055.64 617.34 1055.64 617.34 1144.54 563.39 1152.63 437.62 1160.71 311.84 1144.61 242.36 1144.61 242.36Z" stroke-width="0" fill="#FFEECC"/><path d="M1016.18 655.78C1016.18 655.78 998.53 710.35 1109.75 835.34 1220.97 960.32 1292.36 954.76 1292.36 954.76 1292.36 954.76 1199.87 1039.74 1077.18 1041.43 954.49 1043.11 895.16 992.39 872.01 946.91 848.86 901.43 843.53 851.7 887.85 784.21 932.18 716.72 1016.18 655.79 1016.18 655.79Z" stroke-width="0" fill="#FFEECC"/><path d="M1270.61 951.8C1284.74 955.35 1292.35 954.76 1292.35 954.76 1292.35 954.76 1199.86 1039.74 1077.17 1041.43 992.21 1042.59 937.65 1018.63 904.43 988.68 941.58 1009.7 993.16 1024.04 1063.24 1023.08 1153.71 1021.84 1229.48 980.1 1270.61 951.81Z" stroke-width="0" fill="#FFFFFF"/><path d="M908.35 815.56C865.22 881.24 869.11 930.1 890.68 974.58 882.84 965.45 876.67 956.07 872 946.9 848.85 901.42 843.52 851.69 887.84 784.2 932.17 716.71 1016.17 655.78 1016.17 655.78 1016.17 655.78 1011.74 669.5 1021.33 698.92 995.01 719.83 940.95 765.92 908.35 815.56Z" stroke-width="0" fill="#EFDCBB"/></g><path d="M500.35 1273.67C580.59 1291.07 655.53 1298.87 739.07 1302.36L744.82 1256.29C664.82 1252.83 584.22 1244.95 508.52 1228.66 423.95 1210.46 344.12 1184.87 278.43 1152.18L268.65 1197.51C337.53 1229.39 410.9 1254.27 500.35 1273.67Z" stroke-width="0" fill="#0A151C"/><path d="M273.58 1193.92C271.9 1189.59 267.9 1186.25 263.34 1185.37 261.72 1185.06 259.87 1184.94 258.83 1183.66 258.14 1182.8 258.01 1181.64 257.9 1180.54 257.53 1176.67 257.17 1172.8 256.8 1168.93 264.34 1170.73 269.46 1187.35 273.57 1193.92Z" stroke-width="0" fill="none"/><path d="M270.75 1190.88 277.19 1195.56C275.36 1188.84 269.42 1184.24 264.41 1179.4 259.4 1174.56 254.76 1167.83 256.64 1161.12 261.01 1168.64 267.83 1170.59 274.97 1175.56 282.11 1180.53 275.45 1183.56 270.74 1190.87Z" stroke-width="0"/><path d="M262.48 1191.6C263.25 1193.49 264.25 1195.56 266.18 1196.2 267.16 1196.52 268.23 1196.41 269.25 1196.54 272.39 1196.95 274.73 1199.53 276.77 1201.95 278.85 1198.82 279.39 1194.71 278.17 1191.15 276.9 1187.43 273.96 1184.57 271.47 1181.52 269.64 1179.28 268.01 1176.87 266.39 1174.47 263.29 1169.89 260.48 1164.67 256.92 1160.44 254.04 1157.02 251.66 1155.86 252.5 1161.17 254.11 1171.41 258.62 1182.03 262.5 1191.59Z" stroke-width="0"/><g><path d="M636.01 1666.38C636.95 1661.38 638.94 1655.04 640.47 1649.24 641.6 1644.94 671.9 1645.21 672.07 1655.51 672.11 1658.14 672.06 1660.47 671.92 1662.58 677.1 1662.58 682.72 1662.42 688.66 1662.03 701.56 1661.2 713.11 1659.59 721.22 1657.69 721.88 1673.97 721.09 1702.18 721.72 1720.27 721.72 1720.27 586.89 1757.15 565.37 1730.32 559.31 1722.76 592.95 1688.33 636.03 1666.38Z" stroke-width="0" fill="#212C33"/><path d="M721.49 1708.92C721.53 1712.95 721.58 1716.82 721.7 1720.27 721.7 1720.27 586.87 1757.15 565.35 1730.32 564.49 1729.25 564.44 1727.64 565.08 1725.62 602.46 1736.3 687.96 1717.21 721.49 1708.92Z" stroke-width="0" fill="#0B1014"/></g><g><path d="M912.36 1667.72C912.09 1662.64 912.51 1656.01 912.62 1650.02 912.7 1645.58 942.2 1638.65 944.8 1648.61 945.47 1651.16 945.96 1653.44 946.33 1655.52 951.36 1654.29 956.79 1652.8 962.46 1651.02 974.79 1647.16 985.64 1642.85 993.06 1639.08 997.57 1654.74 1003.49 1682.33 1008.39 1699.76 1008.39 1699.76 886.16 1767.58 858.88 1746.62 851.19 1740.71 875.71 1699.29 912.35 1667.74Z" stroke-width="0" fill="#212C33"/><path d="M1005.5 1688.77C1006.49 1692.67 1007.47 1696.43 1008.4 1699.74 1008.4 1699.74 886.17 1767.56 858.89 1746.6 857.81 1745.77 857.37 1744.22 857.51 1742.1 896.35 1743.61 974.89 1704.77 1005.49 1688.77Z" stroke-width="0" fill="#0B1014"/></g><g><path d="M811.67 930.34C811.3 921.64 816.63 914.91 826.32 915.19 826.19 914.22 825.45 901.57 825.45 901.57 812.09 898.37 795.34 890.07 790.9 879.58 781.08 886.26 759.58 882.93 745.31 878.5 745.31 878.5 737.95 888.82 737.33 889.58 745.68 894.5 746.46 902.99 741.52 910.16 729.49 927.63 721.95 932.36 719.85 943.82 716.77 960.64 726.92 970.64 736.41 976.7 747.35 983.68 755.36 987.68 757.86 994.32 763.52 990.03 767.61 989.51 780.59 989.42 791.85 989.34 805.77 986.26 812.11 970.38 816.43 959.56 812.55 951.54 811.66 930.35Z" stroke-width="0" fill="#FFD200"/><path d="M783.41 913.48 785.59 925.59C785.78 926.67 786.49 927.58 787.49 928.03L798.71 933.1C801.22 934.24 801.34 937.76 798.91 939.06L788.07 944.87C787.1 945.39 786.46 946.35 786.34 947.44L784.98 959.67C784.68 962.41 781.36 963.61 779.37 961.71L770.49 953.19C769.7 952.43 768.59 952.11 767.52 952.33L755.47 954.82C752.77 955.38 750.6 952.6 751.8 950.12L757.15 939.04C757.63 938.06 757.59 936.9 757.04 935.95L750.95 925.26C749.59 922.87 751.56 919.95 754.29 920.32L766.48 921.99C767.57 922.14 768.65 921.74 769.39 920.93L777.67 911.83C779.53 909.79 782.92 910.77 783.4 913.48Z" stroke-width="0" fill="#F79E00"/><path d="M785.25 913.51 787.32 925.02C787.5 926.04 788.18 926.91 789.13 927.34L799.78 932.16C802.17 933.24 802.28 936.59 799.97 937.83L789.67 943.36C788.75 943.85 788.14 944.76 788.02 945.79L786.73 957.41C786.44 960.01 783.29 961.15 781.4 959.34L772.96 951.25C772.21 950.53 771.15 950.23 770.14 950.44L758.69 952.81C756.12 953.34 754.07 950.7 755.2 948.34L760.29 937.81C760.74 936.87 760.7 935.77 760.19 934.87L754.4 924.71C753.1 922.43 754.98 919.66 757.57 920.01L769.16 921.6C770.19 921.74 771.22 921.37 771.92 920.6L779.79 911.96C781.55 910.02 784.77 910.95 785.24 913.53Z" stroke-width="0" fill="#FCF747"/></g></g><g id="Mouth_1"><g><path d="M450.05 597.25C447.25 597.99 447.39 602.01 450.23 602.54 480.45 608.23 561.41 621.98 589.46 611.71 607.76 605.01 618.04 593.96 623.67 585 625.5 582.09 622.02 578.76 619.24 580.78 613.75 584.77 606.52 588.44 598.39 588.59 580.32 588.92 551.6 578.3 551.6 578.3L450.05 597.25Z" stroke-width="0" fill="#E89213"/><path d="M611.27 597.39C611.27 597.39 462.75 605.43 456.44 603.69 450.13 601.95 449.79 606.28 458.27 617.5 465.01 626.43 538.89 633.85 558.88 630.27 593.53 624.08 621.15 587.51 621.15 587.51L611.27 597.39Z" stroke-width="0" fill="#E89213"/><path d="M550.46 580.82C550.46 580.82 570.93 592.26 590.69 592.84 610.45 593.42 621.92 583.44 621.92 583.44 621.92 583.44 609.02 603.75 565.96 607.78 522.9 611.82 464.86 598.13 464.86 598.13L550.47 580.81Z" stroke-width="0" fill="#FFAE2C"/><path d="M614.22 590.44 475.2 603.18C475.2 603.18 504.37 618.11 552.21 614.94 589.44 612.48 618.41 587.51 618.41 587.51L614.22 590.43Z" stroke-width="0" fill="#FFAE2C"/><path d="M454.14 596.48C454.14 596.48 491.88 605.9 531.18 608.23 570.48 610.56 587.43 603.69 587.43 603.69 587.43 603.69 534.92 603.66 514.97 600.58 495.03 597.5 481.51 593.12 481.51 593.12L492.64 589.29 454.14 596.47Z" stroke-width="0" fill="#FFEECC"/></g><path d="M621.15 584.49C621.15 584.49 594.04 613.03 530.79 612.28 467.54 611.53 451.79 602.84 451.79 602.84L452.92 608.54C452.92 608.54 496.97 621.29 543.38 617.79 589.79 614.29 621.14 584.5 621.14 584.5Z" stroke-width="0" fill="#6B4919"/></g></g></svg>