<svg viewBox="0 0 650 378" xmlns="http://www.w3.org/2000/svg" xmlns:xlink="http://www.w3.org/1999/xlink" id="_Ñëîé_2" overflow="hidden"><defs></defs><rect x="0" y="31" width="650" height="347" stroke-width="0" fill="#36DEFF"/><rect x="0" y="235.35" width="650" height="4.65" stroke-width="0" fill="#17D5FA"/><rect x="0" y="319.35" width="650" height="4.65" stroke-width="0" fill="#17D5FA"/><rect x="0" y="156" width="650" height="4.65" stroke-width="0" fill="#17D5FA"/><rect x="0" y="76.66" width="650" height="4.65" stroke-width="0" fill="#17D5FA"/><rect x="26" y="30.92" width="4.5" height="347.08" stroke-width="0" fill="#17D5FA"/><rect x="85.91" y="30.92" width="4.5" height="347.08" stroke-width="0" fill="#17D5FA"/><rect x="145.82" y="30.92" width="4.5" height="347.08" stroke-width="0" fill="#17D5FA"/><rect x="205.73" y="30.92" width="4.5" height="347.08" stroke-width="0" fill="#17D5FA"/><rect x="265.64" y="30.92" width="4.5" height="347.08" stroke-width="0" fill="#17D5FA"/><rect x="325.55" y="30.92" width="4.5" height="347.08" stroke-width="0" fill="#17D5FA"/><rect x="385.46" y="30.92" width="4.5" height="347.08" stroke-width="0" fill="#17D5FA"/><rect x="445.37" y="30.92" width="4.5" height="347.08" stroke-width="0" fill="#17D5FA"/><rect x="505.28" y="30.92" width="4.5" height="347.08" stroke-width="0" fill="#17D5FA"/><rect x="565.19" y="30.92" width="4.5" height="347.08" stroke-width="0" fill="#17D5FA"/><rect x="625.1" y="30.92" width="4.5" height="347.08" stroke-width="0" fill="#17D5FA"/><rect x="0" y="2" width="650" height="34" stroke-width="0" fill="#65A6CC"/><rect x="0" y="0" width="650" height="8" stroke-width="0" fill="#3D6594"/><rect x="0" y="31" width="650" height="39" stroke-width="0" fill="#EBF7FF" opacity="0.4"/></svg>