<svg viewBox="0 0 2053.64 477.26" xmlns="http://www.w3.org/2000/svg" xmlns:xlink="http://www.w3.org/1999/xlink" id="Isolation_Mode" overflow="hidden"><defs></defs><path d="M568.46 0C665.86 29.55 818.83 57.85 1026.82 57.85 1234.81 57.85 1387.78 29.55 1485.18 0L2053.64 0C2053.64 329.68 1537.93 477.26 1026.82 477.26 515.71 477.26 0 329.68 0 0L568.46 0Z" stroke-width="0" fill="#54D189"/><g><path d="M1384.15 24.99C1422.44 17.2 1456.51 8.7 1485.18 0L1695.71 0C1703.67 2.17 1711.65 3.82 1719.56 6.61 1851.06 52.97 1912.08 171.35 1872.96 289.17 1791.91 342.45 1688.53 384.07 1571.52 414.3 1627.88 265.64 1596.75 69.12 1384.16 24.99Z" stroke-width="0" fill="#FFE783"/><path d="M568.46 0C618.26 15.1 682.78 29.84 761.57 40.67L762.21 40.84C691.64 41.23 508.75 59.5 472.15 411.66 351.8 379.69 246.68 335.32 165.83 278.59 209.8 93.22 336.59 18.48 459.98 0L568.45 0Z" stroke-width="0" fill="#FFE783"/><path d="M845.28 470.79C820.74 358.86 804 174.17 928.6 55.41 960.02 56.84 992.39 57.85 1026.82 57.85 1082.33 57.85 1133.61 55.73 1181.27 52.22 1237.63 160.07 1230.95 365.86 1192.6 471.67 1137.7 475.19 1082.29 477.27 1026.82 477.27 966.07 477.27 905.29 475.03 845.28 470.8Z" stroke-width="0" fill="#FFE783"/></g></svg>